<!DOCTYPE svg PUBLIC "-//W3C//DTD SVG 20010904//EN" "http://www.w3.org/TR/2001/REC-SVG-20010904/DTD/svg10.dtd">
<svg version="1.0" xmlns="http://www.w3.org/2000/svg" width="1000px" height="726px" viewBox="0 0 10000 7260" preserveAspectRatio="xMidYMid meet">
<g id="layer101" fill="#030303" stroke="none">
<path d="M705 7251 c-3 -6 -14 -77 -25 -158 -33 -260 -91 -687 -96 -711 -3 -15 -17 -29 -39 -38 -19 -8 -39 -23 -45 -33 -5 -11 -10 -76 -10 -146 0 -99 4 -133 17 -158 15 -28 17 -62 14 -277 l-3 -245 -78 -210 c-302 -813 -455 -1536 -437 -2063 7 -221 46 -345 157 -506 340 -492 1260 -752 2300 -650 288 28 470 68 795 174 373 121 539 153 785 154 177 0 266 -13 410 -60 109 -36 265 -116 390 -199 109 -73 363 -265 357 -271 -1 -1 -277 -6 -612 -9 -336 -3 -729 -10 -875 -15 -202 -7 -268 -6 -277 3 -15 16 -68 185 -84 267 -15 81 -24 100 -49 100 -35 0 -178 -197 -248 -343 -34 -72 -40 -78 -77 -87 -22 -6 -59 -15 -83 -22 -68 -17 -126 -60 -151 -110 -70 -146 44 -479 177 -515 50 -14 2170 -9 2342 5 287 24 375 45 441 108 l26 25 155 -208 c349 -469 578 -697 867 -864 215 -124 548 -202 741 -172 656 102 1365 1690 2145 4803 121 482 365 1516 365 1545 0 3 -96 5 -212 5 -155 0 -226 4 -260 14 -83 26 -194 29 -308 11 -58 -10 -138 -20 -179 -22 l-73 -5 7 32 c4 18 4 70 0 115 l-7 83 -86 13 c-112 17 -587 18 -812 1 -353 -27 -876 -88 -959 -111 -42 -13 -58 -34 -67 -88 l-6 -43 -1720 0 -1720 0 7 88 c3 48 8 104 11 125 5 32 3 37 -14 37 -26 0 -29 -10 -43 -140 -17 -152 -33 -143 -24 13 l7 124 -214 100 c-438 208 -780 348 -923 379 -170 36 -528 18 -853 -45 l-146 -28 -17 21 -17 21 -12 -26 c-7 -15 -29 -170 -49 -345 l-36 -319 -184 -3 c-153 -2 -186 -5 -196 -18 -10 -14 -25 -14 -135 -3 -69 6 -126 13 -127 14 -2 1 22 187 52 414 60 449 63 481 41 481 -8 0 -17 -4 -21 -9z m135 -959 c20 -5 30 -11 24 -15 -13 -8 -222 18 -232 29 -8 8 155 -3 208 -14z m-270 -123 c0 -119 -2 -130 -17 -127 -16 3 -18 18 -21 111 -3 102 6 147 28 147 6 0 10 -53 10 -131z m7 -512 c-2 -23 -3 -1 -3 48 0 50 1 68 3 42 2 -26 2 -67 0 -90z m2743 -3651 c16 -64 42 -142 56 -173 l27 -56 216 6 c119 4 538 10 932 14 l717 6 74 -74 c83 -84 182 -200 288 -339 l72 -95 -33 -27 c-105 -88 -374 -110 -1329 -111 -785 0 -1424 17 -1457 38 -49 33 -108 185 -118 308 -6 63 -4 78 17 116 27 52 62 73 163 97 99 23 117 34 134 79 8 22 35 74 59 115 43 73 145 221 149 216 1 -1 16 -55 33 -120z"/>
<path d="M3856 1479 c-31 -25 -32 -38 -5 -73 36 -46 99 -26 99 33 0 30 -27 61 -52 61 -8 0 -27 -9 -42 -21z"/>
<path d="M4456 1487 c-42 -30 6 -71 69 -60 34 7 42 28 20 53 -21 23 -63 26 -89 7z"/>
<path d="M4143 1473 c-29 -6 -37 -32 -17 -54 20 -22 42 -24 79 -7 35 16 32 44 -6 57 -18 6 -32 10 -33 10 -1 -1 -11 -4 -23 -6z"/>
</g>
<g id="layer102" fill="#779be7" stroke="none">
<path d="M2030 7114 c-195 -14 -559 -69 -616 -93 -17 -7 -22 -21 -27 -68 -4 -32 -13 -116 -22 -188 -28 -244 -94 -920 -105 -1080 -11 -158 -19 -190 -41 -168 -9 9 -9 56 0 190 6 98 11 185 11 194 0 10 -14 20 -37 27 -118 34 -402 72 -535 72 l-76 0 -7 -32 c-4 -17 -5 -93 -1 -167 3 -75 3 -185 -2 -246 -4 -60 -5 -229 -1 -375 5 -255 7 -268 34 -350 15 -47 40 -110 55 -140 68 -133 202 -292 343 -406 137 -111 490 -329 657 -406 83 -38 85 -39 100 -20 8 11 64 88 124 171 163 226 270 319 411 356 166 43 277 -10 346 -165 29 -63 58 -215 65 -342 l7 -107 41 -5 c23 -3 129 -9 236 -15 212 -11 262 -6 339 33 26 13 235 153 464 311 339 233 417 291 417 309 0 82 -268 814 -327 894 l-19 26 -207 -113 c-233 -128 -212 -105 -237 -261 -14 -83 -26 -113 -43 -107 -15 5 -15 12 43 392 62 407 74 508 105 849 18 205 22 282 14 287 -8 5 -9 41 -4 126 l7 119 -214 101 c-438 208 -783 349 -918 377 -78 16 -285 26 -380 20z"/>
<path d="M8290 6624 c-30 -2 -129 -8 -220 -14 -308 -20 -871 -84 -959 -109 -42 -13 -58 -34 -67 -88 l-6 -43 -1721 -2 -1722 -3 -17 -205 c-20 -237 -36 -375 -84 -734 -19 -142 -33 -261 -30 -263 3 -3 87 39 188 94 l183 99 3 41 c2 26 11 48 25 61 31 28 207 132 224 132 15 0 61 -43 79 -74 9 -18 17 -16 143 33 192 76 284 102 382 108 107 7 168 -11 234 -69 103 -91 176 -234 280 -550 l71 -217 192 457 c106 251 192 463 192 469 0 10 -87 12 -418 6 -330 -5 -420 -4 -427 6 -4 7 -3 17 2 22 5 5 488 15 1083 24 1292 18 1524 25 1542 43 11 12 -36 13 -287 8 -932 -20 -2322 -33 -2333 -22 -4 4 1 13 10 20 16 11 844 26 2417 42 l435 4 205 46 c113 25 244 61 291 79 47 18 202 78 345 134 273 108 506 195 540 204 11 2 -6 5 -38 6 l-59 1 7 31 c4 17 4 69 0 114 l-7 83 -76 12 c-76 11 -495 21 -602 14z"/>
<path d="M9595 6354 c62 -32 95 -66 127 -131 32 -66 33 -71 32 -188 -2 -156 -25 -329 -74 -544 -22 -96 -39 -175 -38 -176 2 -2 18 -10 36 -19 23 -12 32 -23 32 -41 0 -43 -51 -159 -82 -185 -25 -22 -41 -63 -113 -295 -98 -315 -124 -391 -175 -500 -50 -108 -114 -191 -191 -250 -110 -83 -340 -183 -553 -240 -49 -13 -90 -26 -92 -27 -1 -2 30 -2 69 0 113 5 167 -33 167 -120 0 -32 5 -39 45 -62 24 -15 51 -36 59 -47 l14 -21 4 23 c3 13 5 -5 6 -41 2 -114 -42 -161 -193 -206 -28 -9 -30 -13 -36 -69 l-6 -60 -1 50 c-3 64 -22 41 -22 -25 0 -25 -7 -55 -15 -66 -8 -12 -11 -24 -7 -28 3 -4 -2 -4 -12 0 -14 6 -17 4 -11 -6 6 -10 -9 -12 -78 -8 l-87 4 6 -38 c13 -75 -33 -125 -102 -112 l-34 6 0 -44 c0 -81 -27 -146 -86 -208 -30 -31 -78 -70 -107 -86 -51 -29 -54 -29 -195 -27 -165 3 -190 12 -224 76 -18 35 -22 58 -22 137 0 184 44 407 107 543 l40 87 -45 162 -44 162 -50 -2 c-58 -3 -312 30 -450 58 -54 11 -122 31 -150 44 -65 30 -135 98 -167 163 -29 57 -248 629 -357 932 -76 211 -78 214 -111 225 -30 10 -35 17 -47 66 -33 140 -18 123 -144 160 -207 60 -338 119 -338 150 0 46 83 49 268 9 52 -11 96 -19 98 -16 2 2 -29 36 -71 76 l-75 71 -153 0 c-83 0 -157 -4 -163 -8 -18 -11 -40 -60 -128 -280 -46 -114 -138 -327 -204 -474 l-121 -267 45 -143 c25 -79 95 -302 155 -497 113 -363 127 -398 223 -560 31 -52 56 -103 56 -113 0 -20 -29 -41 -81 -57 -20 -6 -41 -22 -48 -35 -7 -12 -26 -30 -42 -40 -16 -10 -37 -34 -47 -54 -14 -29 -25 -38 -57 -45 -22 -6 -41 -11 -43 -12 -2 -2 17 -43 41 -91 81 -164 176 -379 182 -417 8 -44 -6 -67 -37 -59 -75 19 -404 445 -509 660 -31 63 -37 70 -73 78 -56 13 -74 44 -107 187 -22 93 -69 227 -183 519 -84 216 -163 426 -175 466 -21 69 -24 73 -46 68 -65 -16 -75 -24 -75 -60 0 -18 -8 -43 -17 -54 -23 -27 -157 -102 -182 -102 -11 0 -30 14 -42 33 -12 17 -24 34 -25 36 -3 3 -274 -181 -655 -446 -242 -168 -295 -195 -393 -201 -91 -5 -586 26 -601 38 -7 6 -25 -42 -58 -161 l-47 -169 34 -68 c64 -126 105 -320 111 -517 2 -71 8 -143 14 -158 6 -16 11 -36 11 -45 0 -26 38 -82 55 -82 8 0 14 -4 13 -9 -2 -5 12 -20 31 -33 54 -37 73 -69 74 -127 0 -28 -5 -57 -11 -63 -21 -21 -13 -32 10 -12 19 16 20 16 9 1 -35 -45 -162 -72 -214 -46 -12 6 -38 29 -58 52 -33 37 -39 40 -55 27 -16 -12 -17 -12 -6 0 6 8 12 18 12 24 0 5 -27 -17 -60 -48 -74 -71 -116 -91 -140 -67 -29 27 -40 58 -40 108 0 27 -6 57 -13 68 -13 17 -16 17 -77 -3 -50 -17 -67 -19 -84 -10 -20 11 -20 10 -7 -8 14 -18 14 -18 -4 -2 -16 15 -19 30 -16 96 3 92 -13 121 -77 140 -21 7 -47 21 -57 32 -10 11 -22 17 -26 14 -5 -3 -9 24 -9 59 0 45 7 82 25 125 14 34 25 63 25 65 0 1 -12 4 -27 5 -81 7 -95 127 -20 186 17 15 38 31 46 37 10 9 11 28 6 78 -10 99 -32 253 -56 377 l-21 112 -246 126 c-252 128 -509 285 -655 400 -187 146 -331 333 -403 521 -48 129 -56 185 -63 455 l-6 255 -76 -205 c-300 -806 -454 -1532 -436 -2058 7 -221 46 -345 157 -506 340 -492 1260 -752 2300 -650 288 28 470 68 795 174 373 121 539 153 785 154 121 0 188 -4 250 -18 255 -53 471 -167 793 -418 l131 -102 206 -8 c220 -7 291 -17 330 -47 47 -34 62 -74 67 -179 7 -121 -7 -197 -51 -287 l-34 -69 65 -91 c400 -547 644 -798 952 -976 215 -124 548 -202 741 -172 656 102 1365 1690 2145 4803 121 482 365 1516 365 1545 0 3 -98 5 -217 5 -204 0 -216 -1 -188 -16z m-7544 -3790 c9 -11 2 -9 -18 6 -18 13 -33 25 -33 27 0 8 38 -17 51 -33z m16 -86 c-2 -13 -4 -3 -4 22 0 25 2 35 4 23 2 -13 2 -33 0 -45z m423 -181 c0 -2 -17 -19 -37 -38 l-38 -34 34 38 c33 34 41 42 41 34z"/>
<path d="M9195 6345 c-153 -27 -268 -67 -665 -228 -342 -138 -531 -197 -799 -252 -134 -27 -543 -130 -681 -172 -116 -34 -181 -69 -286 -152 -137 -109 -154 -115 -288 -108 -76 5 -154 18 -251 42 -77 20 -165 38 -195 41 l-55 5 29 -17 c77 -44 322 -114 486 -139 58 -9 125 -20 150 -24 67 -14 102 -4 270 71 243 110 148 100 965 103 558 3 759 7 895 19 346 32 343 32 338 10 -3 -16 -19 -21 -98 -32 -52 -7 -98 -16 -101 -20 -4 -4 -10 -28 -13 -53 l-7 -46 183 -6 c177 -7 356 -25 466 -48 30 -6 56 -8 59 -5 8 8 50 184 80 336 22 114 26 164 27 321 l1 185 -30 49 c-71 116 -255 162 -480 120z"/>
<path d="M570 6170 l0 -130 109 0 c120 0 285 -19 436 -50 53 -11 103 -20 110 -20 8 0 16 36 24 113 6 62 11 118 11 124 0 22 -374 91 -395 73 -8 -7 -51 -5 -125 5 -63 8 -126 15 -142 15 l-28 0 0 -130z"/>
<path d="M5938 5751 c-86 -3 -159 -9 -163 -13 -4 -4 -4 -12 1 -19 13 -21 998 5 1159 31 57 9 -753 10 -997 1z"/>
<path d="M3983 5487 c-57 -34 -103 -68 -103 -76 0 -8 22 -56 50 -106 81 -151 166 -372 265 -690 44 -141 109 -295 124 -295 11 0 124 69 141 86 13 13 13 18 -3 45 -9 17 -17 43 -17 57 0 15 -63 220 -141 457 -145 444 -196 585 -207 585 -4 0 -53 -28 -109 -63z"/>
<path d="M8530 5479 c-80 -4 -410 -7 -734 -7 -323 0 -592 -4 -596 -9 -5 -4 -2 -73 6 -151 13 -132 12 -160 -3 -216 -11 -40 -27 17 -34 122 -4 57 -10 106 -13 110 -5 5 -245 -56 -593 -151 -44 -11 -73 -25 -73 -32 0 -40 365 -1018 420 -1126 31 -61 86 -116 144 -144 50 -25 357 -83 528 -100 l66 -6 7 32 c4 18 23 70 42 116 58 138 139 203 255 203 115 0 236 -79 358 -234 61 -77 80 -95 102 -95 44 -1 286 64 389 105 335 132 441 228 548 498 35 88 211 659 211 685 0 25 -35 54 -118 95 -93 47 -215 76 -318 76 -95 0 -250 -25 -280 -45 -13 -8 -33 -46 -49 -90 -29 -79 -40 -94 -57 -77 -6 6 12 79 56 216 36 114 66 213 66 221 0 17 -71 18 -330 4z"/>
<path d="M6962 5385 c-218 -100 -265 -110 -402 -81 -36 8 -89 17 -119 21 l-54 7 7 -51 c10 -73 14 -81 48 -81 28 0 473 112 641 161 l67 20 0 39 c0 26 -5 40 -12 40 -7 0 -86 -34 -176 -75z"/>
<path d="M8893 5343 c-14 -3 -26 -16 -33 -39 -7 -20 -10 -37 -8 -38 1 -2 37 2 78 10 41 7 125 13 186 14 172 0 305 -40 439 -134 l64 -45 27 70 c14 39 24 72 22 75 -9 8 -153 42 -248 58 -163 27 -453 43 -527 29z"/>
<path d="M2330 4353 c-53 -9 -168 -74 -226 -126 -91 -83 -304 -366 -304 -404 0 -17 83 -65 91 -52 4 7 11 5 21 -4 24 -24 97 -461 98 -584 0 -50 -2 -53 -42 -80 -47 -31 -64 -66 -54 -107 9 -35 35 -34 71 4 15 16 31 27 35 25 4 -3 15 -49 25 -102 29 -159 56 -212 128 -250 38 -19 160 -42 249 -45 65 -3 78 0 121 25 l47 28 0 56 0 55 -27 -8 c-16 -4 -46 -8 -68 -8 -36 -1 -40 2 -43 26 -3 27 -3 27 65 30 l68 3 6 45 c9 65 -15 98 -47 66 -21 -21 -17 -44 9 -49 17 -3 15 -5 -9 -6 -20 -1 -38 7 -52 22 -36 38 -29 52 29 54 29 1 54 4 56 7 10 9 -38 218 -65 288 -32 84 -69 128 -106 128 -42 0 -131 -35 -181 -71 -35 -25 -48 -30 -57 -21 -32 32 116 118 222 130 l64 7 47 164 c26 90 53 169 61 177 10 10 23 11 53 4 22 -5 44 -5 48 -1 13 13 -12 261 -34 341 -54 194 -139 261 -299 233z m80 -1230 c-23 -9 -51 -36 -61 -58 -7 -18 -8 -18 -8 -2 -1 22 46 67 68 66 14 0 14 -1 1 -6z m82 -20 c23 -25 43 -63 34 -63 -2 0 -13 16 -25 35 -11 20 -31 40 -43 45 -14 5 -17 9 -7 9 8 1 27 -11 41 -26z m-24 -78 c2 -2 -4 -38 -14 -80 -10 -42 -21 -70 -25 -63 -3 7 -10 46 -13 87 l-7 74 28 -8 c15 -3 30 -8 31 -10z m-137 -49 c38 -1 69 -4 69 -8 0 -18 -58 -68 -85 -73 -26 -5 -24 -3 11 13 53 25 65 52 24 52 -17 0 -30 -5 -30 -11 0 -6 -6 -9 -14 -6 -17 7 -40 -18 -31 -33 12 -19 -11 -10 -32 13 -20 21 -43 60 -43 71 0 3 14 0 32 -6 17 -6 62 -11 99 -12z m-69 -135 c27 -6 67 -11 88 -11 41 0 52 -16 31 -49 -18 -28 -157 13 -191 57 -28 35 -27 59 1 33 12 -11 44 -25 71 -30z"/>
<path d="M7869 4060 c-70 -37 -136 -129 -160 -223 -9 -38 -9 -49 3 -60 8 -8 29 -66 47 -128 18 -63 39 -137 47 -165 l15 -51 58 -6 c113 -10 269 -102 222 -131 -5 -3 -32 10 -61 29 -49 33 -133 65 -170 65 -50 0 -103 -86 -140 -227 -23 -88 -43 -230 -35 -243 11 -17 50 -11 63 10 15 24 7 25 -33 4 -28 -14 -29 -14 -13 2 22 22 69 22 102 0 42 -27 31 -36 -48 -36 -58 0 -75 -3 -80 -16 -12 -30 -6 -45 30 -76 19 -17 56 -60 81 -95 27 -39 49 -60 56 -56 7 4 46 32 87 62 70 52 73 56 50 62 -14 4 -42 7 -63 8 -42 1 -55 18 -38 50 12 22 38 18 99 -13 60 -31 70 -23 184 147 63 93 68 98 77 76 13 -35 66 -81 87 -77 10 2 23 15 28 30 12 34 -10 69 -66 104 l-41 26 7 81 c9 108 30 250 62 419 l26 137 -76 94 c-75 95 -165 171 -239 202 -49 20 -124 18 -168 -5z m40 -968 c17 2 28 1 25 -4 -9 -15 -61 -8 -75 10 -13 15 -12 16 3 3 10 -7 31 -11 47 -9z m-35 -119 c-12 -87 -16 -92 -30 -38 -19 68 -18 75 10 75 23 0 24 -3 20 -37z m158 -30 c10 -9 15 -20 11 -26 -3 -5 -1 -7 5 -3 6 3 13 2 17 -4 4 -6 -26 -10 -85 -10 -101 0 -109 8 -49 48 36 25 70 23 101 -5z m-194 -116 c4 -31 -2 -32 -77 -12 -55 14 -93 36 -49 28 13 -2 41 0 63 5 53 13 59 10 63 -21z"/>
</g>
<g id="layer103" fill="#fbf9ff" stroke="none">
<path d="M896 6354 c-9 -23 -8 -24 22 -25 15 0 98 -15 184 -32 l158 -32 6 35 c3 19 7 43 9 53 3 16 -11 17 -185 17 -162 0 -189 -2 -194 -16z"/>
<path d="M3520 6338 c0 -18 -9 -166 -20 -328 -21 -310 -23 -378 -9 -270 7 50 59 606 59 626 0 2 -7 4 -15 4 -10 0 -15 -10 -15 -32z"/>
<path d="M3596 6358 c-3 -7 -9 -80 -16 -163 -14 -195 -42 -447 -86 -769 -19 -142 -33 -261 -30 -263 3 -3 87 39 188 94 l183 99 3 41 c2 26 11 48 25 61 31 28 207 132 224 132 15 0 61 -43 79 -74 9 -18 17 -16 143 33 192 76 284 102 382 108 107 7 168 -11 234 -69 103 -91 176 -234 280 -550 l71 -217 192 457 c106 251 192 463 192 469 0 10 -87 12 -418 6 -330 -5 -420 -4 -427 6 -4 7 -3 17 2 22 4 4 456 15 1003 23 1283 20 1580 26 1609 38 13 4 22 10 20 12 -2 2 -441 -2 -976 -9 -1195 -17 -1642 -20 -1651 -11 -29 30 34 33 1115 45 598 6 1112 14 1141 17 30 3 52 10 52 17 0 13 -50 287 -72 395 l-13 62 -1723 0 c-1369 0 -1723 -3 -1726 -12z"/>
<path d="M8970 6351 c0 -21 1 -21 100 12 8 3 -11 6 -42 6 -51 1 -58 -1 -58 -18z"/>
<path d="M9595 6354 c62 -32 95 -66 127 -131 32 -66 33 -71 32 -188 -2 -156 -25 -329 -74 -544 -22 -96 -39 -175 -38 -176 2 -2 18 -10 36 -19 23 -12 32 -23 32 -41 0 -43 -51 -159 -82 -185 -25 -22 -41 -63 -113 -295 -98 -315 -124 -391 -175 -500 -79 -170 -171 -258 -368 -352 -95 -45 -265 -108 -412 -151 -34 -10 -33 -10 25 -11 103 -2 155 -42 155 -123 0 -32 5 -39 45 -62 24 -15 51 -36 59 -47 l14 -21 4 23 c3 13 5 -5 6 -41 2 -114 -42 -161 -193 -206 -28 -9 -30 -13 -36 -69 l-6 -60 -1 50 c-3 64 -22 41 -22 -25 0 -25 -7 -55 -15 -66 -8 -12 -11 -24 -7 -28 3 -4 -2 -4 -12 0 -14 6 -17 4 -11 -6 6 -10 -9 -12 -78 -8 l-87 4 6 -38 c13 -75 -33 -125 -102 -112 l-34 6 0 -44 c0 -81 -27 -146 -86 -208 -30 -31 -78 -70 -107 -86 -51 -29 -54 -29 -195 -27 -165 3 -190 12 -224 76 -18 35 -22 58 -22 137 0 184 44 407 107 543 l40 87 -45 162 -44 162 -50 -2 c-58 -3 -312 30 -450 58 -124 26 -191 56 -248 113 -56 57 -72 88 -157 311 -38 100 -73 190 -78 201 -23 54 -120 315 -209 564 -57 159 -60 164 -93 175 -30 10 -35 17 -47 66 -33 140 -18 123 -144 160 -207 60 -338 119 -338 150 0 46 83 49 268 9 52 -11 96 -19 98 -16 2 2 -29 36 -71 76 l-75 71 -153 0 c-83 0 -157 -4 -163 -8 -18 -11 -40 -60 -128 -280 -46 -114 -138 -327 -204 -474 l-121 -267 45 -143 c25 -79 95 -302 155 -497 113 -363 127 -398 223 -560 31 -52 56 -103 56 -113 0 -20 -29 -41 -81 -57 -20 -6 -41 -22 -48 -35 -7 -12 -26 -30 -42 -40 -16 -10 -37 -34 -47 -54 -14 -29 -25 -38 -57 -45 -22 -6 -41 -11 -43 -12 -2 -2 17 -43 41 -91 81 -164 176 -379 182 -417 8 -44 -6 -67 -37 -59 -75 19 -404 445 -509 660 -31 63 -37 70 -73 78 -56 13 -74 44 -107 187 -22 93 -69 227 -183 519 -84 216 -163 426 -175 466 -21 69 -24 73 -46 68 -65 -16 -75 -24 -75 -60 0 -18 -8 -43 -17 -54 -23 -27 -157 -102 -182 -102 -11 0 -30 14 -42 33 -12 17 -24 34 -25 36 -3 3 -274 -181 -655 -446 -242 -168 -295 -195 -393 -201 -91 -5 -586 26 -601 38 -7 6 -25 -42 -58 -161 l-47 -169 34 -68 c64 -126 105 -320 111 -517 2 -71 8 -143 14 -158 6 -16 11 -36 11 -45 0 -26 38 -82 55 -82 8 0 14 -4 13 -9 -2 -5 12 -20 31 -33 54 -37 73 -69 74 -127 0 -28 -5 -57 -11 -63 -21 -21 -13 -32 10 -12 19 16 20 16 9 1 -35 -45 -162 -72 -214 -46 -12 6 -38 29 -58 52 -33 37 -39 40 -55 27 -16 -12 -17 -12 -6 0 6 8 12 18 12 24 0 5 -27 -17 -60 -48 -74 -71 -116 -91 -140 -67 -29 27 -40 58 -40 108 0 27 -6 57 -13 68 -13 17 -16 17 -77 -3 -50 -17 -67 -19 -84 -10 -20 11 -20 10 -7 -8 14 -18 14 -18 -4 -2 -16 15 -19 30 -16 96 3 92 -13 121 -77 140 -21 7 -47 21 -57 32 -10 11 -22 17 -26 14 -5 -3 -9 24 -9 59 0 45 7 82 25 125 14 34 25 63 25 65 0 1 -12 4 -27 5 -81 7 -95 127 -20 186 17 15 38 31 46 37 10 9 11 28 6 78 -10 99 -32 253 -56 377 l-21 112 -246 126 c-252 128 -509 285 -655 400 -187 146 -331 333 -403 521 -48 129 -56 185 -63 455 l-6 255 -76 -205 c-300 -806 -454 -1532 -436 -2058 7 -221 46 -345 157 -506 340 -492 1260 -752 2300 -650 288 28 470 68 795 174 373 121 539 153 785 154 121 0 188 -4 250 -18 255 -53 471 -167 793 -418 l131 -102 206 -8 c220 -7 291 -17 330 -47 47 -34 62 -74 67 -179 7 -121 -7 -197 -51 -287 l-34 -69 65 -91 c400 -547 644 -798 952 -976 215 -124 548 -202 741 -172 656 102 1365 1690 2145 4803 121 482 365 1516 365 1545 0 3 -98 5 -217 5 -204 0 -216 -1 -188 -16z m-7544 -3790 c9 -11 2 -9 -18 6 -18 13 -33 25 -33 27 0 8 38 -17 51 -33z m16 -86 c-2 -13 -4 -3 -4 22 0 25 2 35 4 23 2 -13 2 -33 0 -45z m423 -181 c0 -2 -17 -19 -37 -38 l-38 -34 34 38 c33 34 41 42 41 34z"/>
<path d="M9195 6345 c-153 -27 -268 -67 -665 -228 -342 -138 -531 -197 -799 -252 -134 -27 -543 -130 -681 -172 -116 -34 -181 -69 -286 -152 -137 -109 -154 -115 -288 -108 -76 5 -154 18 -251 42 -77 20 -165 38 -195 41 l-55 5 29 -17 c77 -44 322 -114 486 -139 58 -9 125 -20 150 -24 67 -14 102 -4 270 71 243 110 148 100 965 103 558 3 759 7 895 19 346 32 343 32 338 10 -3 -16 -19 -21 -98 -32 -52 -7 -98 -16 -101 -20 -4 -4 -10 -28 -13 -53 l-7 -46 183 -6 c162 -6 445 -35 505 -53 25 -7 25 -5 67 182 52 228 60 293 60 480 l1 180 -30 49 c-71 116 -255 162 -480 120z"/>
<path d="M866 6281 c-4 -6 3 -13 16 -15 48 -11 289 -37 300 -34 7 3 -48 14 -122 27 -74 12 -147 24 -162 27 -14 3 -29 1 -32 -5z"/>
<path d="M8115 6009 c-27 -10 -37 -17 -21 -14 31 7 97 33 81 33 -5 0 -32 -8 -60 -19z"/>
<path d="M7060 5761 c0 -18 3 -18 51 -6 70 19 72 25 6 25 -49 0 -57 -3 -57 -19z"/>
<path d="M5938 5751 c-86 -3 -159 -9 -163 -13 -4 -4 -4 -12 1 -19 13 -21 950 4 1149 30 68 10 -739 11 -987 2z"/>
<path d="M6580 5681 c-42 -5 -54 -10 -52 -21 6 -31 65 -180 71 -180 11 0 85 52 161 115 41 34 86 69 100 78 23 16 19 17 -100 15 -69 -1 -150 -4 -180 -7z"/>
<path d="M6176 5655 c7 -17 199 -175 214 -175 4 0 15 3 24 6 13 5 11 10 -12 27 -15 12 -56 47 -92 78 -36 31 -75 61 -87 68 -31 16 -54 14 -47 -4z"/>
<path d="M6296 5661 c-6 -9 72 -75 134 -114 l35 -22 -19 30 c-49 76 -88 115 -117 115 -15 0 -30 -4 -33 -9z"/>
<path d="M6426 5658 c17 -28 77 -98 81 -94 3 2 -4 27 -14 55 -16 45 -21 51 -46 51 -20 0 -26 -4 -21 -12z"/>
<path d="M5673 5648 c-20 -27 -373 -881 -373 -903 0 -13 4 -26 8 -29 12 -7 327 710 398 907 12 34 12 37 -5 37 -10 0 -23 -6 -28 -12z"/>
<path d="M572 5269 l4 -354 28 -85 c16 -47 41 -110 56 -140 68 -133 202 -292 343 -406 67 -54 291 -203 412 -274 63 -37 28 -8 -70 57 -286 191 -535 425 -610 574 -58 114 -101 332 -130 659 -8 96 -15 205 -15 242 0 37 -5 70 -11 73 -7 5 -9 -97 -7 -346z"/>
<path d="M4562 5594 c-84 -22 -326 -111 -361 -133 -12 -8 14 -94 138 -473 84 -254 155 -465 158 -468 2 -2 74 19 158 49 94 32 162 51 172 46 16 -6 16 -8 -5 -25 -13 -11 -55 -29 -93 -42 -77 -25 -82 -34 -54 -105 8 -21 52 -144 99 -274 46 -130 119 -321 161 -425 52 -129 84 -225 100 -303 14 -63 32 -122 40 -130 20 -20 140 -18 293 5 137 20 156 27 142 54 -11 20 -19 21 -134 18 l-122 -3 -55 41 c-97 74 -120 104 -81 104 10 0 52 -25 92 -55 40 -30 82 -55 93 -55 42 0 96 34 107 67 20 57 45 54 134 -16 42 -32 58 -39 52 -26 -4 11 -12 41 -18 68 -10 43 -10 49 10 70 l22 23 -125 399 c-69 220 -137 437 -152 483 -14 46 -29 80 -33 75 -4 -4 -26 -53 -50 -108 -99 -230 -137 -301 -170 -315 -32 -13 -80 -2 -80 19 0 5 56 142 125 304 l125 295 -80 243 c-185 567 -297 676 -608 593z"/>
<path d="M3963 5477 c-52 -33 -83 -58 -83 -69 0 -13 23 0 85 48 47 36 85 67 85 70 0 5 5 8 -87 -49z"/>
<path d="M4122 5470 c3 -8 24 -73 48 -143 23 -71 44 -127 46 -124 5 4 -83 268 -92 276 -4 3 -5 -1 -2 -9z"/>
<path d="M6396 5275 c4 -27 13 -56 20 -64 26 -28 27 -1 1 56 l-27 58 6 -50z"/>
<path d="M3527 5140 c-52 -29 -94 -66 -86 -75 6 -5 139 91 139 100 0 6 4 8 -53 -25z"/>
<path d="M9590 5140 c0 -4 6 -13 14 -19 10 -9 15 -8 19 3 3 8 -2 16 -14 19 -10 3 -19 2 -19 -3z"/>
<path d="M6601 4829 c-1 -4 24 -76 55 -160 182 -495 262 -686 306 -725 11 -10 -6 34 -41 107 -32 68 -82 187 -110 264 -99 268 -208 534 -210 514z"/>
<path d="M5166 4453 c-106 -253 -116 -280 -97 -269 23 15 211 426 211 463 -1 58 -25 16 -114 -194z"/>
<path d="M4380 4404 c-59 -50 -85 -84 -63 -84 12 0 124 67 142 84 13 13 7 57 -7 56 -4 -1 -36 -26 -72 -56z"/>
<path d="M3975 4259 c-283 -198 -623 -427 -707 -475 -63 -35 -63 -35 -23 -29 67 11 116 41 548 340 305 210 417 292 417 306 0 10 -1 19 -2 19 -2 0 -106 -73 -233 -161z"/>
<path d="M2178 4396 c-94 -25 -165 -94 -303 -291 -118 -170 -166 -253 -149 -259 9 -3 17 -6 19 -6 1 0 52 68 111 152 176 246 274 338 412 384 42 14 57 24 47 28 -25 9 -85 6 -137 -8z"/>
<path d="M2330 4353 c-53 -9 -168 -74 -226 -126 -91 -83 -304 -366 -304 -404 0 -17 83 -65 91 -52 4 7 11 5 21 -4 24 -24 97 -461 98 -584 0 -50 -2 -53 -42 -80 -47 -31 -64 -66 -54 -107 9 -35 35 -34 71 4 15 16 31 27 35 25 4 -3 15 -49 25 -102 29 -159 56 -212 128 -250 38 -19 160 -42 249 -45 65 -3 78 0 121 25 l47 28 0 56 0 55 -27 -8 c-16 -4 -46 -8 -68 -8 -36 -1 -40 2 -43 26 -3 27 -3 27 65 30 l68 3 6 45 c9 65 -15 98 -47 66 -21 -21 -17 -44 9 -49 17 -3 15 -5 -9 -6 -20 -1 -38 7 -52 22 -36 38 -29 52 29 54 29 1 54 4 56 7 10 9 -38 218 -65 288 -32 84 -69 128 -106 128 -42 0 -131 -35 -181 -71 -35 -25 -48 -30 -57 -21 -32 32 116 118 222 130 l64 7 47 164 c26 90 53 169 61 177 10 10 23 11 53 4 22 -5 44 -5 48 -1 13 13 -12 261 -34 341 -54 194 -139 261 -299 233z m162 -1250 c14 -14 29 -35 31 -47 5 -19 5 -20 -6 -2 -36 55 -49 66 -85 66 -37 0 -82 -31 -82 -57 0 -7 -5 -13 -10 -13 -21 0 23 62 53 75 38 17 63 11 99 -22z m-24 -78 c2 -2 -4 -38 -14 -80 -10 -42 -21 -70 -25 -63 -3 7 -10 46 -13 87 l-7 74 28 -8 c15 -3 30 -8 31 -10z m-137 -49 c38 -1 69 -4 69 -8 0 -18 -58 -68 -85 -73 -26 -5 -24 -3 11 13 53 25 65 52 24 52 -17 0 -30 -5 -30 -11 0 -6 -6 -9 -14 -6 -17 7 -40 -18 -31 -33 12 -19 -11 -10 -32 13 -20 21 -43 60 -43 71 0 3 14 0 32 -6 17 -6 62 -11 99 -12z m-69 -135 c27 -6 67 -11 88 -11 41 0 52 -16 31 -49 -18 -28 -157 13 -191 57 -28 35 -27 59 1 33 12 -11 44 -25 71 -30z"/>
<path d="M8065 4097 c84 -41 160 -105 236 -198 39 -49 76 -92 81 -95 5 -3 -4 21 -21 55 -63 124 -199 236 -311 256 -32 6 -31 4 15 -18z"/>
<path d="M7794 4078 c-71 -48 -121 -137 -139 -249 -5 -28 -3 -25 13 16 56 147 85 192 150 235 25 16 41 30 35 30 -6 0 -33 -15 -59 -32z"/>
<path d="M7869 4060 c-70 -37 -136 -129 -160 -223 -9 -38 -9 -49 3 -60 8 -8 29 -66 47 -128 18 -63 39 -137 47 -165 l15 -51 58 -6 c113 -10 269 -102 222 -131 -5 -3 -32 10 -61 29 -49 33 -133 65 -170 65 -50 0 -103 -86 -140 -227 -23 -88 -43 -230 -35 -243 11 -17 50 -11 63 10 15 24 7 25 -33 4 -28 -14 -29 -14 -13 2 22 22 69 22 102 0 42 -27 31 -36 -48 -36 -58 0 -75 -3 -80 -16 -12 -30 -6 -45 30 -76 19 -17 56 -60 81 -95 27 -39 49 -60 56 -56 7 4 46 32 87 62 70 52 73 56 50 62 -14 4 -42 7 -63 8 -42 1 -55 18 -38 50 12 22 38 18 99 -13 60 -31 70 -23 184 147 63 93 68 98 77 76 13 -35 66 -81 87 -77 10 2 23 15 28 30 12 34 -10 69 -66 104 l-41 26 7 81 c9 108 30 250 62 419 l26 137 -76 94 c-75 95 -165 171 -239 202 -49 20 -124 18 -168 -5z m47 -967 c13 2 21 0 18 -4 -9 -15 -61 -10 -75 8 -13 15 -12 15 10 4 13 -7 34 -11 47 -8z m-42 -120 c-12 -87 -16 -92 -30 -38 -19 68 -18 75 10 75 23 0 24 -3 20 -37z m158 -30 c10 -9 15 -20 11 -26 -3 -5 -1 -7 5 -3 6 3 13 2 17 -4 4 -6 -26 -10 -85 -10 -101 0 -109 8 -49 48 36 25 70 23 101 -5z m-194 -116 c4 -31 -2 -32 -77 -12 -55 14 -93 36 -49 28 13 -2 41 0 63 5 53 13 59 10 63 -21z"/>
<path d="M7938 2944 c-16 -8 -28 -19 -28 -24 0 -19 35 -10 59 15 26 28 12 33 -31 9z"/>
<path d="M8705 3890 c-143 -49 -252 -89 -243 -89 33 -2 248 59 346 98 98 39 186 81 167 79 -5 0 -127 -40 -270 -88z"/>
<path d="M7065 3871 c22 -11 63 -22 90 -25 50 -6 50 -6 -15 13 -109 30 -116 31 -75 12z"/>
<path d="M5625 3510 c8 -42 81 -200 93 -200 4 0 17 7 28 14 19 15 18 16 -10 69 -15 29 -48 76 -73 103 l-44 49 6 -35z"/>
<path d="M5455 3470 c-9 -15 2 -28 41 -46 47 -23 54 -11 14 26 -34 32 -45 36 -55 20z"/>
<path d="M5550 3370 c0 -10 -5 -30 -11 -43 -9 -21 -7 -32 16 -71 26 -44 29 -46 48 -33 47 31 44 73 -11 138 -28 34 -42 37 -42 9z"/>
<path d="M5414 3278 c-9 -14 69 -132 90 -136 9 -2 24 -1 32 2 13 5 13 10 -2 38 -29 58 -62 95 -89 100 -14 3 -28 1 -31 -4z"/>
<path d="M5258 3261 c-31 -3 -59 -9 -62 -12 -18 -18 136 -271 271 -444 74 -95 177 -205 193 -205 14 0 -32 104 -142 324 -55 110 -112 230 -125 266 -14 36 -30 68 -36 72 -13 8 -13 8 -99 -1z"/>
<path d="M5356 1714 c79 -80 243 -278 309 -371 17 -24 34 -43 38 -43 16 0 60 115 70 186 13 88 -2 225 -27 253 -33 36 -184 61 -367 61 l-107 0 84 -86z"/>
</g>


</svg>