<!DOCTYPE svg PUBLIC "-//W3C//DTD SVG 20010904//EN" "http://www.w3.org/TR/2001/REC-SVG-20010904/DTD/svg10.dtd">
<svg version="1.0" xmlns="http://www.w3.org/2000/svg" width="1000px" height="620px" viewBox="0 0 10000 6200" preserveAspectRatio="xMidYMid meet">
<g id="layer101" fill="#060606" stroke="none">
<path d="M3542 6186 c-8 -5 -46 -8 -83 -7 -60 2 -69 0 -83 -21 -9 -12 -16 -33 -16 -45 l0 -23 -1187 -2 -1186 -3 -34 -100 c-297 -879 -522 -1875 -560 -2482 -3 -56 -9 -107 -13 -113 -6 -9 -20 -9 -59 -1 -64 14 -175 14 -220 1 -76 -21 -99 -77 -66 -157 23 -55 139 -162 239 -218 48 -27 93 -55 100 -62 7 -6 16 -36 20 -67 8 -71 50 -204 88 -281 129 -257 359 -446 672 -551 430 -143 945 -119 1347 64 l65 29 18 -49 c19 -55 135 -184 232 -259 48 -37 54 -45 49 -69 -5 -24 2 -35 61 -88 51 -46 71 -59 84 -52 11 6 51 -12 145 -67 244 -141 385 -203 636 -278 l87 -25 16 -92 c10 -51 20 -120 23 -153 5 -57 4 -64 -21 -88 -43 -43 -30 -97 22 -97 21 0 23 -3 18 -26 -10 -40 11 -92 45 -110 17 -8 39 -24 50 -35 57 -57 159 -74 219 -38 50 31 59 48 60 110 0 37 5 61 15 69 13 11 13 16 -1 42 -11 22 -13 33 -5 41 21 21 11 30 -28 24 l-39 -5 -12 45 c-6 25 -20 64 -31 86 -20 39 -20 42 -4 101 10 34 19 65 22 69 3 5 51 -79 107 -185 335 -632 561 -880 870 -958 240 -61 354 6 544 320 l21 35 -2 -29 c-2 -26 1 -30 33 -33 19 -2 96 -15 170 -28 210 -38 1031 -145 1112 -145 l36 0 17 73 c31 133 54 260 84 467 17 113 41 275 55 360 14 85 28 192 32 237 7 92 5 95 -76 108 -25 4 -72 13 -105 22 -33 8 -98 19 -145 23 -97 10 -771 108 -776 113 -2 2 12 62 32 133 111 406 350 1441 390 1691 l6 42 97 32 c722 237 1181 665 1181 1100 0 84 2 90 84 295 81 204 338 902 351 957 4 15 10 27 14 27 4 0 13 -69 20 -152 40 -509 94 -947 136 -1094 34 -121 107 -267 148 -298 55 -42 106 -51 199 -37 72 11 82 11 90 -3 13 -23 30 -20 26 5 -2 18 6 25 47 41 78 30 158 88 178 130 17 35 17 41 3 90 -19 64 -86 173 -255 412 -198 279 -312 470 -392 656 -47 108 -148 374 -144 378 2 2 25 -13 52 -34 94 -73 241 -128 483 -180 231 -50 584 -106 710 -111 115 -5 129 -4 168 16 37 19 91 82 105 124 1 5 14 11 27 12 30 2 37 21 10 28 -18 5 -20 13 -20 77 0 132 -16 140 -305 151 -115 4 -349 3 -520 -1 -453 -13 -729 -12 -743 2 -9 9 -13 7 -19 -8 -4 -10 -122 -143 -263 -294 -141 -151 -296 -319 -345 -372 -48 -54 -89 -98 -90 -98 -1 0 -30 36 -64 80 -116 150 -286 306 -460 422 -42 28 -77 51 -77 52 -2 1 20 144 31 204 l6 32 -581 0 -580 0 0 25 c0 43 -30 63 -96 64 -33 0 -71 -4 -85 -10 -19 -7 -38 -7 -63 0 -28 7 -49 6 -87 -5 -39 -12 -58 -13 -83 -4 -26 8 -43 8 -74 -3 -31 -11 -45 -11 -63 -2 -14 7 -56 11 -104 9 -79 -3 -107 -4 -165 -3 -16 0 -46 0 -65 0 -194 -1 -198 -2 -214 -38 l-15 -33 -326 0 -326 0 -10 43 -9 42 -100 3 c-55 1 -109 2 -120 3 -11 0 -29 1 -40 1 -55 -1 -132 5 -152 12 -12 4 -31 3 -41 -3 -11 -6 -23 -7 -27 -3 -10 10 -113 9 -133 -2z m134 -28 c4 -5 -23 -8 -60 -8 -37 0 -65 4 -62 8 6 10 112 10 122 0z m84 2 c11 -7 3 -10 -30 -10 -33 0 -41 3 -30 10 8 5 22 10 30 10 8 0 22 -5 30 -10z m90 0 c11 -7 6 -10 -20 -10 -26 0 -31 3 -20 10 8 5 17 10 20 10 3 0 12 -5 20 -10z m120 -10 c11 -7 3 -10 -28 -10 -26 0 -41 4 -37 10 8 13 45 13 65 0z m145 0 c-11 -5 -40 -8 -65 -8 l-45 1 50 7 c72 10 83 10 60 0z m1783 -5 c6 -3 12 -14 12 -25 0 -20 -4 -20 -525 -20 -354 0 -525 3 -525 10 0 16 31 24 49 13 12 -8 22 -7 36 3 22 16 59 18 83 5 11 -6 33 -5 59 2 33 8 47 8 66 -2 21 -11 28 -11 51 4 22 15 33 16 64 7 20 -6 50 -8 65 -5 16 3 39 0 53 -7 19 -11 31 -11 64 0 33 11 48 11 74 2 27 -10 40 -9 69 3 43 18 70 19 112 4 25 -9 37 -9 60 3 25 14 93 15 133 3z m-2488 -40 c0 -8 -4 -15 -10 -15 -5 0 -10 7 -10 15 0 8 5 15 10 15 6 0 10 -7 10 -15z m6450 -76 c57 -19 65 -32 64 -104 0 -36 -4 -68 -8 -72 -22 -23 -1375 143 -1404 172 -3 3 64 6 149 6 85 1 235 5 334 9 256 11 821 4 865 -11z m-1115 -79 c232 -33 778 -98 970 -115 99 -9 182 -19 185 -21 8 -9 -36 -78 -62 -97 -62 -46 -182 -40 -583 28 -445 76 -668 143 -775 233 l-35 30 80 -19 c44 -10 143 -28 220 -39z m-476 -87 c-45 -71 -94 -146 -109 -168 -44 -64 -156 -247 -266 -433 l-103 -173 -42 73 c-23 40 -48 82 -56 94 -12 20 -5 30 114 160 168 185 534 574 539 574 2 0 -33 -57 -77 -127z m47 -39 c-56 -166 -279 -769 -347 -938 l-63 -159 -18 82 c-10 45 -32 118 -49 162 -24 63 -29 86 -21 103 38 83 520 861 529 853 1 -2 -12 -48 -31 -103z m134 -114 c128 -487 296 -988 431 -1280 55 -119 57 -114 -46 -126 -112 -13 -165 17 -220 125 -67 134 -108 299 -139 556 -28 234 -91 953 -82 930 3 -5 28 -98 56 -205z m91 -124 c90 -206 189 -367 452 -739 197 -279 228 -359 158 -418 -35 -29 -130 -82 -168 -93 -18 -6 -25 -1 -41 31 -32 62 -141 320 -183 431 -69 184 -260 803 -282 917 -6 29 -6 29 5 5 6 -14 33 -74 59 -134z m-8231 -2229 l65 -12 3 -178 2 -177 -62 35 c-100 55 -178 116 -220 172 -42 56 -58 113 -38 138 28 34 135 43 250 22z m2860 -1065 c0 -4 -25 -32 -55 -62 -51 -50 -63 -76 -30 -64 8 4 -8 -35 -36 -87 -77 -141 -149 -259 -158 -259 -28 0 -244 209 -272 262 -38 73 -32 82 86 128 99 38 221 73 290 83 56 8 175 7 175 -1z m145 -33 c28 -11 77 -34 110 -52 l60 -34 3 -71 c2 -40 0 -72 -4 -72 -15 0 -190 83 -199 95 -6 7 -39 27 -75 45 -36 18 -67 34 -69 36 -3 3 13 22 34 44 42 43 46 44 140 9z m-85 -139 c0 -17 -24 -11 -63 15 -54 37 -46 50 13 20 28 -14 50 -30 50 -35z m287 -47 c-2 -16 -4 -3 -4 27 0 30 2 43 4 28 2 -16 2 -40 0 -55z m-189 -4 c29 -12 51 -24 49 -26 -5 -5 -110 38 -122 50 -11 11 -4 9 73 -24z m3270 -574 c209 -30 401 -56 428 -59 41 -4 135 -21 233 -42 23 -5 24 -7 18 -77 -15 -192 -161 -1095 -180 -1114 -16 -15 -1277 156 -1300 177 -13 11 12 118 39 173 38 74 112 257 174 430 l57 158 44 -58 c43 -56 263 -364 285 -400 11 -17 13 -17 32 3 11 12 51 38 89 59 37 21 103 60 146 87 43 27 82 46 87 43 4 -3 41 -67 80 -143 40 -75 92 -171 116 -213 25 -42 42 -83 39 -92 -7 -17 44 -62 56 -50 14 14 24 97 11 89 -7 -4 -12 -16 -12 -27 0 -33 -15 -15 -73 88 -109 194 -181 338 -182 363 0 32 -30 38 -58 12 -37 -33 -281 -175 -307 -178 -22 -2 -36 13 -110 118 -47 67 -118 164 -157 215 -40 51 -73 102 -73 113 0 11 13 61 29 112 16 51 41 132 56 181 17 56 31 87 40 87 8 0 185 -25 393 -55z m-2444 -134 c31 -57 56 -108 56 -113 0 -6 -10 -43 -22 -84 -17 -62 -25 -74 -42 -74 -26 0 -126 -46 -126 -58 0 -20 14 -20 40 -1 15 11 45 23 67 26 37 5 41 3 55 -28 37 -79 56 -181 32 -172 -7 2 -21 0 -32 -6 -17 -9 -19 -8 -15 9 4 14 0 20 -11 20 -17 0 -19 -11 -10 -46 4 -15 11 -20 25 -17 10 3 19 0 19 -6 0 -6 -9 -11 -20 -11 -21 0 -27 -15 -10 -25 22 -14 -17 -32 -65 -31 -28 0 -56 -1 -63 -4 -9 -3 -21 16 -37 59 -27 74 -40 90 -57 73 -18 -18 -38 -14 -38 8 0 11 12 27 26 37 25 16 26 19 20 82 -4 36 -14 107 -23 158 -19 107 -17 114 58 228 54 83 87 112 105 92 7 -6 37 -59 68 -116z m-173 72 c-17 -21 -44 -63 -60 -93 -17 -30 -31 -50 -31 -44 0 14 67 124 92 152 33 34 32 26 -1 -15z m134 -703 l20 -9 -20 0 c-11 0 -27 4 -35 9 -13 9 -13 10 0 9 8 0 24 -4 35 -9z"/>
<path d="M4117 934 c-4 -4 -7 -13 -7 -20 0 -10 6 -11 24 -4 13 5 27 6 31 2 4 -4 6 0 3 8 -5 16 -39 25 -51 14z"/>
<path d="M4055 840 c-18 -20 -17 -20 35 -20 52 0 53 0 35 20 -10 11 -26 20 -35 20 -9 0 -25 -9 -35 -20z"/>
<path d="M4030 787 c0 -16 48 -29 76 -20 50 17 39 31 -20 30 -31 -1 -56 -5 -56 -10z"/>
</g>
<g id="layer102" fill="#5b4e58" stroke="none">
<path d="M3410 6106 c0 -8 -5 -16 -11 -18 -14 -5 4 -94 27 -139 29 -57 200 -137 314 -146 114 -9 247 37 325 112 56 55 87 115 83 163 l-3 37 -367 2 c-308 2 -368 0 -368 -11z"/>
<path d="M987 6083 c-8 -13 -112 -338 -166 -513 -240 -789 -406 -1605 -433 -2133 l-3 -58 170 -58 c94 -31 192 -67 219 -79 l48 -22 49 53 c136 144 309 465 403 749 55 165 73 265 60 339 l-9 54 -46 6 c-25 4 -55 12 -66 19 -31 20 -63 74 -63 107 0 70 64 67 133 -6 24 -26 48 -58 52 -70 4 -13 12 -20 20 -17 8 3 32 10 54 16 77 21 188 147 250 285 70 154 131 363 175 590 25 131 34 183 86 534 16 106 31 196 35 199 3 3 10 1 17 -6 18 -18 -61 -502 -143 -882 -46 -210 -138 -456 -214 -570 -57 -86 -111 -135 -189 -171 l-62 -29 -4 -108 c-7 -196 -3 -274 19 -357 39 -147 112 -277 237 -420 l65 -75 52 39 c138 104 291 140 332 77 14 -21 14 -29 2 -64 -27 -78 -71 -138 -176 -242 -110 -109 -196 -168 -287 -197 -97 -30 -160 5 -158 88 2 51 29 91 129 189 47 46 85 89 85 95 0 6 -12 22 -26 36 -49 45 -153 185 -193 260 -48 90 -78 163 -101 249 -14 51 -19 61 -25 45 -111 -293 -256 -568 -392 -743 -35 -47 -61 -88 -56 -92 4 -3 96 -57 203 -120 250 -144 291 -172 340 -227 53 -61 53 -89 -1 -138 -107 -96 -182 -90 -564 50 -93 34 -232 90 -308 124 -76 33 -142 61 -146 61 -12 0 6 -106 35 -200 100 -327 355 -571 728 -696 431 -144 944 -119 1349 64 58 27 67 35 67 58 0 44 65 165 116 216 25 26 76 62 113 81 60 32 304 139 493 217 42 17 81 37 87 44 8 10 17 137 12 182 -2 21 -31 24 -57 7 -23 -15 -26 -15 -39 3 -16 21 -15 19 -20 54 -2 14 -7 38 -11 54 -7 28 -6 29 25 23 20 -4 44 -1 66 10 34 16 36 16 65 -5 l30 -23 2 43 c2 68 -1 151 -22 518 -23 392 -99 1650 -103 1695 -1 22 -8 31 -23 33 -20 3 -22 11 -27 100 -3 53 -2 101 2 105 5 4 37 11 72 15 57 6 64 10 67 30 3 17 -2 25 -17 29 -25 6 -26 26 -5 84 39 110 37 162 -13 337 l-18 62 -1187 0 c-653 0 -1189 -3 -1191 -7z"/>
<path d="M4160 6043 c-15 -64 -76 -142 -144 -187 -75 -49 -99 -96 -94 -181 2 -50 -1 -67 -16 -83 -21 -24 -14 -58 12 -66 9 -2 42 -7 72 -11 30 -3 68 -9 84 -12 l28 -5 -7 -111 c-4 -61 -9 -116 -12 -123 -2 -7 -16 -15 -30 -19 l-25 -6 6 -112 c3 -62 13 -481 21 -932 9 -451 19 -869 23 -930 l7 -110 70 -3 c46 -2 76 2 87 10 20 16 111 186 306 573 l151 300 51 395 c27 217 59 469 71 559 21 152 21 165 6 176 -14 10 -17 29 -17 94 0 78 1 82 25 93 26 12 26 13 24 117 -2 58 2 138 9 176 17 104 15 207 -9 333 l-21 112 -333 0 -333 0 -12 -47z"/>
<path d="M5072 6080 c-124 -3 -202 -9 -203 -15 0 -5 5 -46 11 -90 20 -134 11 -378 -16 -448 -6 -18 34 -27 120 -27 33 0 120 -7 191 -15 196 -22 202 -22 211 18 11 49 8 157 -5 206 -7 23 -10 45 -7 48 3 3 10 -15 17 -41 6 -25 14 -48 18 -50 4 -3 26 4 50 15 42 18 43 20 36 55 -4 21 -3 34 3 30 5 -3 12 -19 15 -35 6 -28 7 -29 41 -19 32 10 33 12 25 42 -11 38 -11 36 0 36 5 0 12 -13 16 -30 4 -16 10 -30 13 -30 16 0 189 58 218 73 85 44 120 118 101 218 l-11 59 -85 1 c-263 4 -580 3 -759 -1z"/>
<path d="M5947 6012 c7 -94 -15 -154 -68 -194 -36 -27 -135 -69 -209 -88 -53 -14 -70 -26 -70 -51 0 -10 -5 -21 -11 -25 -9 -5 -10 1 -5 20 5 19 3 26 -8 26 -29 0 -66 -20 -66 -35 0 -8 -4 -15 -10 -15 -5 0 -10 7 -10 15 0 13 -6 12 -39 -4 l-39 -20 -7 -84 c-3 -46 -10 -89 -14 -96 -7 -10 -38 -10 -162 3 -85 8 -197 18 -250 22 -108 7 -104 10 -108 -73 -2 -42 1 -53 16 -62 26 -13 205 -39 332 -47 l104 -7 -6 61 c-3 34 -1 65 4 68 5 3 9 -24 9 -60 0 -65 0 -66 28 -66 70 0 72 -3 72 -106 0 -92 0 -94 -24 -94 -27 0 -20 72 -61 -630 -14 -234 -30 -447 -36 -475 -18 -87 -216 -575 -385 -947 -52 -114 -110 -255 -130 -315 l-36 -107 27 -22 c26 -21 27 -25 20 -80 -4 -33 -17 -93 -30 -134 -13 -41 -26 -93 -29 -115 l-6 -40 25 40 c14 22 53 92 88 155 74 136 175 249 223 251 96 3 150 -14 202 -64 74 -71 82 -111 107 -547 8 -151 22 -363 30 -470 8 -107 17 -244 20 -305 4 -67 11 -118 20 -131 7 -12 44 -34 82 -49 171 -70 173 -71 173 -104 0 -24 -7 -34 -32 -47 -60 -31 -95 -33 -212 -13 -138 24 -131 24 -107 -7 60 -77 -7 -72 -114 7 -101 75 -121 107 -130 214 -8 94 -53 399 -64 427 -6 16 -30 -6 -151 -134 -157 -167 -235 -240 -282 -264 -45 -23 -118 -19 -258 14 -69 17 -127 28 -130 25 -7 -6 115 -242 224 -433 259 -455 479 -672 750 -740 156 -39 255 -21 353 64 80 70 201 252 229 345 14 48 91 581 134 931 21 174 33 226 48 216 11 -7 224 -37 229 -33 14 15 195 736 276 1102 66 294 143 662 153 722 l6 42 97 32 c630 207 1070 565 1165 950 9 36 16 105 16 155 l0 89 -47 -83 c-47 -83 -131 -182 -154 -182 -18 0 -105 95 -146 158 l-34 53 -20 -23 -21 -23 8 25 c11 39 8 79 -10 160 -37 159 10 319 143 487 l39 49 -70 88 c-123 156 -283 302 -457 418 -42 28 -77 51 -77 52 -2 1 20 144 31 204 l6 32 -580 0 -579 0 5 -78z"/>
<path d="M3440 5848 c-1 -29 -7 -80 -15 -113 -8 -33 -15 -66 -15 -72 0 -17 126 -18 136 -1 4 6 2 14 -4 16 -18 6 -14 19 8 25 11 3 20 10 20 15 0 6 -9 14 -20 17 -26 8 -26 29 1 22 25 -7 34 13 22 48 -5 17 -30 38 -71 61 l-62 35 0 -53z"/>
<path d="M3602 5774 c3 -32 8 -39 31 -45 36 -10 138 6 148 23 12 20 3 25 -68 37 -38 7 -78 14 -91 17 -21 4 -23 2 -20 -32z"/>
<path d="M3857 5798 c-47 -13 -66 -42 -37 -58 11 -6 20 -16 20 -22 0 -7 -4 -7 -13 0 -18 15 -42 -2 -33 -23 4 -11 12 -15 22 -11 9 3 21 3 27 -1 7 -5 0 -10 -17 -13 -16 -3 -31 -10 -33 -17 -4 -12 11 -18 73 -28 l42 -6 -5 43 c-2 24 2 67 10 96 16 59 16 59 -56 40z"/>
<path d="M3725 5710 c-3 -5 -2 -10 4 -10 5 0 16 -3 25 -6 11 -4 16 -1 16 10 0 18 -35 22 -45 6z"/>
<path d="M3581 5672 c-17 -33 -13 -42 24 -58 44 -18 88 -18 125 1 25 13 48 50 38 61 -2 2 -43 7 -90 10 -80 6 -87 5 -97 -14z"/>
<path d="M3444 5616 c-3 -8 -4 -25 -2 -38 3 -26 20 -28 306 -42 l132 -6 0 39 c0 32 -4 40 -22 45 -41 11 -88 6 -114 -11 -39 -25 -136 -23 -173 5 -36 26 -118 31 -127 8z"/>
<path d="M3292 5444 l3 -89 105 -7 c64 -4 165 -21 258 -43 115 -27 184 -37 282 -42 123 -6 130 -5 130 13 0 10 5 59 10 109 5 49 6 93 2 97 -17 17 -285 40 -530 45 l-263 6 3 -89z"/>
<path d="M3340 5318 c0 -6 11 -194 25 -417 14 -223 43 -703 65 -1066 22 -363 43 -700 46 -750 7 -112 11 -135 27 -135 23 0 91 -41 130 -78 49 -47 66 -79 81 -155 l13 -61 49 -13 c95 -26 247 -27 379 -3 66 11 177 24 246 27 l125 6 23 42 c12 23 37 56 54 73 47 45 142 92 186 92 l38 0 70 148 c63 130 242 554 353 832 47 118 54 169 75 550 9 157 22 375 29 485 7 110 12 202 10 204 -2 2 -96 15 -210 27 -113 13 -224 26 -248 29 -43 7 -43 7 -49 -27 -8 -42 -90 -661 -122 -913 -23 -185 -25 -192 -68 -275 -24 -47 -113 -222 -198 -390 -198 -390 -202 -396 -245 -410 -19 -6 -47 -9 -63 -5 -16 3 -81 -3 -145 -14 -122 -22 -143 -25 -133 -15 3 3 42 14 87 24 45 10 84 21 87 24 10 10 -38 2081 -49 2087 -5 4 -60 9 -121 12 -79 4 -155 16 -257 41 -151 37 -290 49 -290 24z m856 -2333 c12 -3 24 -11 27 -18 7 -19 -35 -277 -45 -277 -5 0 -7 8 -4 18 12 40 39 253 33 258 -4 4 -29 9 -57 12 -27 2 -50 9 -50 14 0 8 32 5 96 -7z"/>
<path d="M1177 4563 c-15 -14 -6 -46 21 -73 27 -27 96 -50 109 -36 8 8 -45 83 -71 102 -22 15 -48 18 -59 7z"/>
<path d="M1880 3557 c-79 -33 -138 -76 -252 -186 -132 -125 -158 -162 -158 -217 0 -109 124 -93 302 38 161 118 308 324 268 373 -18 22 -96 18 -160 -8z"/>
<path d="M382 3164 l3 -177 85 -43 c123 -61 466 -187 609 -223 127 -32 219 -39 268 -20 38 14 83 58 83 82 0 36 -103 121 -260 214 -296 175 -607 316 -748 338 l-42 7 2 -178z"/>
<path d="M3357 3043 c-14 -13 -6 -23 17 -23 17 0 31 -11 46 -36 12 -19 21 -37 19 -39 -2 -2 -35 17 -73 42 -81 52 -99 51 -26 -2 75 -55 78 -63 73 -163 -3 -48 -10 -92 -17 -98 -6 -7 -121 -58 -256 -114 -135 -56 -276 -118 -313 -137 -82 -43 -158 -110 -192 -167 -22 -38 -49 -126 -40 -134 2 -2 51 15 110 37 159 63 244 82 375 86 l115 3 116 131 c66 74 127 154 143 186 l27 56 -11 127 c-6 70 -13 141 -16 159 -9 57 -71 112 -97 86z"/>
<path d="M3499 2922 c-2 -21 3 -132 7 -158 6 -32 24 -44 123 -79 64 -22 71 -20 71 20 0 79 -84 188 -164 212 -20 6 -36 8 -37 5z"/>
<path d="M4742 2855 c-24 -7 -64 -30 -90 -50 -49 -38 -105 -111 -99 -129 2 -5 35 -18 73 -28 125 -31 112 -39 154 94 21 65 35 120 32 123 -8 7 -21 5 -70 -10z"/>
<path d="M3494 2673 c-3 -15 -12 -49 -19 -75 -14 -49 -9 -141 14 -274 22 -126 31 -205 31 -263 0 -52 -3 -61 -18 -61 -10 0 -71 20 -137 45 -65 25 -119 44 -121 43 -4 -5 -61 -130 -89 -198 -15 -36 -48 -101 -73 -144 l-45 -79 22 -19 c45 -36 291 -170 408 -222 146 -65 357 -136 406 -136 7 0 25 26 42 57 39 74 121 162 160 170 49 11 92 8 111 -8 33 -27 57 -99 58 -179 l1 -75 125 -32 c69 -17 141 -31 160 -32 48 -1 110 29 166 81 70 64 334 347 334 357 0 5 -51 44 -112 87 -62 42 -141 97 -175 121 l-62 44 -11 -43 c-11 -38 -31 -88 -69 -168 -11 -24 -11 -24 -6 8 5 33 4 33 -25 27 -41 -9 -38 1 9 25 62 31 79 92 126 445 9 66 28 158 42 205 14 47 31 111 38 142 l12 57 -36 14 c-113 45 -281 72 -381 62 -36 -3 -119 -16 -185 -27 -138 -24 -302 -28 -390 -9 -33 8 -100 26 -150 41 -150 46 -153 46 -161 13z"/>
<path d="M5060 2659 c-67 -27 -139 -126 -250 -345 -86 -170 -113 -255 -89 -278 14 -14 188 -109 242 -133 24 -11 27 -11 27 7 0 17 -18 105 -46 230 -3 16 -2 22 4 15 6 -5 22 -66 37 -135 14 -69 32 -147 40 -175 17 -62 105 -632 105 -683 0 -64 18 -108 60 -146 55 -50 149 -110 158 -102 3 4 -22 35 -56 68 -34 33 -60 63 -57 66 2 3 13 -2 23 -11 20 -18 106 -50 162 -60 34 -6 34 -6 -12 19 -68 35 -59 44 19 18 10 -3 3 4 -16 15 -55 36 -28 35 66 -2 48 -19 108 -37 133 -41 33 -4 20 3 -53 27 -88 30 -139 58 -126 71 3 3 27 -6 54 -19 90 -44 220 -68 201 -37 -3 5 -27 17 -53 27 -100 37 -172 75 -187 97 -9 14 -17 61 -21 118 -3 52 -12 167 -20 255 -8 88 -21 275 -30 415 -33 543 -33 536 -56 590 -45 104 -167 165 -259 129z"/>
<path d="M3337 2434 c-142 -147 -139 -139 -70 -159 32 -9 96 -37 142 -61 l84 -44 -6 67 c-5 61 -26 184 -45 268 l-7 30 -98 -101z"/>
<path d="M3082 2093 c-22 -37 -66 -115 -99 -173 -33 -58 -68 -120 -79 -138 l-19 -34 50 -44 c28 -24 57 -43 65 -42 24 5 103 146 164 294 31 75 56 139 56 143 0 5 -65 47 -92 59 -3 2 -24 -27 -46 -65z"/>
<path d="M4693 1960 l-10 -61 174 -120 c96 -67 177 -119 180 -116 7 8 -16 147 -30 176 -8 17 -58 50 -156 103 -79 43 -145 78 -146 78 -1 0 -7 -27 -12 -60z"/>
<path d="M5960 1596 c0 -17 -124 -921 -136 -990 -8 -48 -13 -90 -11 -92 10 -10 137 295 212 510 27 76 35 111 27 114 -7 2 -12 15 -12 29 0 20 4 24 20 20 15 -4 22 2 29 26 5 18 30 101 56 185 26 85 45 155 43 157 -4 4 -203 45 -217 45 -6 0 -11 -2 -11 -4z"/>
<path d="M4085 1501 c-3 -5 7 -31 23 -58 16 -26 46 -81 67 -121 44 -84 55 -81 55 18 0 73 -26 142 -58 159 -25 13 -79 14 -87 2z"/>
</g>
<g id="layer103" fill="#745a7d" stroke="none">
<path d="M4170 6067 c0 -62 -94 -184 -177 -228 -18 -10 -39 -35 -53 -63 -19 -40 -21 -56 -15 -110 5 -52 4 -64 -9 -69 -10 -4 -16 -18 -16 -36 0 -32 5 -34 126 -47 34 -3 67 -9 73 -13 8 -5 8 -37 0 -122 -11 -114 -19 -139 -45 -139 -11 0 -14 -21 -14 -92 0 -157 42 -1983 45 -1987 2 -2 33 -6 69 -8 63 -5 67 -4 93 24 16 17 122 214 237 439 l209 409 32 245 c18 135 52 388 75 564 41 299 42 320 26 331 -14 11 -16 27 -14 101 3 81 5 89 23 92 18 2 21 11 23 67 2 35 -1 66 -6 69 -5 3 -3 37 5 78 22 108 21 303 -1 421 l-18 97 -334 0 -334 0 0 -23z"/>
<path d="M5945 5992 c0 -92 -2 -101 -28 -135 -37 -48 -93 -79 -202 -113 -101 -30 -115 -38 -115 -65 0 -10 -5 -21 -11 -25 -9 -5 -10 1 -5 20 5 19 3 26 -8 26 -29 0 -66 -20 -66 -35 0 -8 -4 -15 -10 -15 -5 0 -10 7 -10 15 0 13 -6 12 -40 -5 -37 -19 -40 -24 -41 -63 0 -50 -13 -135 -22 -143 -3 -3 -74 1 -159 10 -230 23 -348 30 -348 20 -1 -5 -3 -35 -5 -66 -4 -48 -2 -59 13 -67 25 -13 206 -39 331 -47 l104 -7 -6 61 c-3 34 -1 65 4 68 5 3 9 -24 9 -60 0 -65 0 -66 28 -66 70 0 72 -3 72 -106 0 -92 0 -94 -24 -94 -27 0 -20 72 -61 -630 -14 -234 -30 -447 -35 -474 -21 -100 -207 -558 -413 -1016 -74 -165 -127 -310 -127 -347 0 -16 7 -27 20 -30 35 -9 29 -61 -35 -293 -8 -30 -14 -59 -12 -63 1 -5 36 53 77 129 91 168 149 248 209 285 50 32 86 36 155 15 100 -30 159 -105 175 -221 6 -39 19 -227 31 -420 11 -192 24 -397 30 -455 5 -58 12 -166 15 -240 4 -74 11 -147 17 -163 11 -28 23 -35 178 -100 69 -30 75 -35 78 -64 3 -27 -2 -34 -30 -49 -60 -31 -95 -33 -212 -13 -61 10 -115 19 -119 19 -4 0 2 -13 14 -29 27 -36 20 -66 -13 -55 -24 7 -137 83 -176 118 -40 36 -54 75 -63 184 -8 92 -55 412 -62 418 -1 2 -73 -73 -160 -167 -263 -282 -285 -293 -512 -236 -77 19 -141 31 -143 26 -5 -12 150 -308 248 -475 246 -421 462 -628 724 -694 156 -39 255 -21 353 64 87 76 208 264 230 357 13 59 84 555 129 909 15 118 30 219 34 223 4 4 60 -2 124 -13 65 -12 120 -19 122 -17 15 15 195 732 277 1102 66 294 143 662 153 722 l6 42 97 32 c630 207 1070 565 1165 950 9 36 16 105 16 155 l0 89 -47 -83 c-47 -83 -131 -182 -154 -182 -18 0 -105 95 -146 158 l-34 53 -20 -23 -21 -23 8 25 c11 39 8 79 -10 160 -37 159 10 319 143 487 l39 49 -70 88 c-123 156 -283 302 -457 418 -42 28 -77 51 -77 52 -2 1 20 144 31 204 l6 32 -578 0 -578 0 0 -98z"/>
<path d="M4868 6075 c-2 -3 2 -40 10 -82 19 -103 20 -287 3 -391 -7 -45 -11 -85 -9 -88 3 -2 36 -7 74 -9 38 -3 147 -13 242 -22 129 -12 175 -14 184 -5 22 22 28 123 13 197 -18 83 -18 88 -5 80 6 -3 10 -16 10 -28 1 -12 6 -32 13 -44 l13 -23 42 21 c41 20 42 23 36 57 -5 25 -4 33 5 28 6 -4 11 -16 11 -26 0 -25 15 -33 47 -25 23 5 24 9 19 40 -8 43 5 46 21 6 11 -29 12 -30 49 -20 151 41 238 89 269 150 19 35 21 58 11 132 l-7 57 -523 0 c-287 0 -525 -2 -528 -5z"/>
<path d="M4826 5294 c-8 -60 -8 -86 2 -101 4 -6 61 -19 127 -27 204 -26 385 -46 421 -46 l34 0 0 79 0 78 -122 7 c-110 6 -378 39 -434 52 -19 5 -22 0 -28 -42z"/>
<path d="M3345 5279 c3 -30 12 -169 20 -309 8 -140 35 -590 60 -1000 25 -410 48 -802 51 -872 4 -70 10 -131 13 -135 3 -5 28 -17 56 -28 93 -35 175 -145 175 -236 0 -35 13 -44 85 -60 90 -19 252 -16 395 9 69 12 170 23 224 24 l99 3 22 39 c47 84 134 147 237 170 l47 11 57 115 c31 63 108 239 171 390 63 151 123 293 133 315 63 139 100 249 109 326 6 46 18 212 26 369 9 157 22 375 29 485 7 110 12 202 10 204 -2 2 -96 15 -210 27 -113 13 -224 26 -248 29 -43 7 -43 7 -49 -27 -10 -51 -83 -618 -112 -853 -13 -116 -31 -232 -39 -257 -7 -26 -41 -96 -74 -155 -32 -59 -126 -240 -207 -401 -88 -175 -158 -301 -173 -312 -19 -16 -40 -20 -97 -20 -40 0 -109 -7 -152 -15 -43 -8 -89 -15 -103 -15 -45 0 -7 18 74 34 44 9 81 18 83 19 5 6 -41 2068 -47 2077 -3 5 -59 14 -125 19 -68 6 -174 23 -245 41 -69 17 -164 34 -213 37 l-88 6 6 -54z m873 -2303 c11 -11 10 -36 -7 -146 -11 -73 -23 -135 -26 -138 -15 -15 -14 16 5 132 11 70 18 131 15 136 -3 5 -30 12 -60 15 -30 4 -55 12 -55 18 0 14 112 0 128 -17z"/>
<path d="M7628 5218 c-108 -150 -142 -242 -136 -368 6 -100 32 -177 55 -159 28 24 243 374 243 396 0 6 -110 193 -113 193 -2 0 -24 -28 -49 -62z"/>
<path d="M7676 4848 c-117 -186 -126 -205 -116 -228 21 -45 77 -124 115 -160 l37 -35 47 52 c53 57 141 217 141 256 0 42 -29 156 -61 239 -17 43 -32 78 -33 78 -2 0 -60 -91 -130 -202z"/>
<path d="M3483 2623 c-20 -69 -21 -87 -12 -158 5 -44 12 -86 14 -93 9 -26 35 -257 35 -314 0 -49 -3 -58 -18 -58 -10 0 -71 20 -137 45 -65 25 -120 44 -122 42 -2 -2 -30 -66 -63 -141 -32 -76 -78 -170 -100 -209 l-41 -71 23 -18 c45 -34 304 -176 397 -217 153 -69 366 -141 413 -141 7 0 26 26 43 58 16 31 55 83 85 114 47 48 62 57 103 63 40 6 54 4 75 -12 45 -34 66 -88 67 -175 l0 -79 45 -13 c110 -33 243 -58 275 -52 56 11 144 85 306 260 85 92 155 171 157 175 1 4 -75 60 -169 125 -171 119 -188 126 -189 78 0 -8 -13 -44 -29 -80 -15 -37 -31 -75 -35 -85 -3 -10 -10 -16 -16 -12 -6 4 -6 15 0 31 10 25 9 25 -22 19 -29 -7 -31 -6 -20 8 7 8 23 18 36 21 48 12 77 113 116 406 11 85 34 203 51 261 16 58 30 123 32 144 2 37 1 38 -52 56 -161 56 -299 62 -548 23 -241 -37 -324 -30 -573 47 -52 16 -97 29 -100 29 -3 0 -15 -35 -27 -77z"/>
<path d="M3108 2138 c-8 -13 -37 -63 -63 -113 -27 -49 -73 -129 -102 -177 -29 -47 -53 -91 -53 -97 0 -11 96 -91 110 -91 20 0 117 181 185 348 21 51 36 94 34 95 -26 18 -90 57 -93 57 -2 0 -10 -10 -18 -22z"/>
<path d="M4694 1953 c-6 -48 -4 -59 10 -68 9 -5 87 -58 173 -118 86 -59 158 -105 160 -103 3 2 -2 42 -11 87 -11 59 -22 90 -38 105 -24 24 -258 154 -276 154 -6 0 -14 -26 -18 -57z"/>
</g>
<g id="layer104" fill="#c3a923" stroke="none">
<path d="M3410 6105 c0 -8 -5 -15 -11 -15 -17 0 -3 -65 27 -127 24 -50 31 -55 117 -98 151 -75 251 -81 399 -25 106 39 215 170 206 247 l-3 28 -367 2 c-318 2 -368 0 -368 -12z"/>
<path d="M4170 6067 c0 -62 -94 -184 -177 -228 -18 -10 -39 -35 -53 -63 -19 -40 -21 -56 -15 -110 5 -52 4 -64 -9 -69 -10 -4 -16 -18 -16 -36 0 -32 5 -34 126 -47 34 -3 67 -9 73 -13 8 -5 8 -37 0 -122 -11 -114 -19 -139 -45 -139 -11 0 -14 -21 -14 -92 0 -157 42 -1983 45 -1987 2 -2 33 -6 69 -8 63 -5 67 -4 93 24 16 17 122 214 237 439 l208 409 20 145 c10 80 44 334 74 564 51 381 55 421 40 431 -13 10 -16 31 -16 100 0 77 2 87 19 92 11 3 21 17 25 35 9 44 7 96 -3 102 -4 3 -2 38 6 78 22 108 21 303 -1 421 l-18 97 -334 0 -334 0 0 -23z"/>
<path d="M5945 5992 c0 -92 -2 -101 -27 -134 -38 -50 -86 -77 -208 -118 -58 -19 -106 -41 -106 -47 -1 -7 -2 -20 -3 -28 0 -8 -6 -15 -12 -15 -7 0 -9 11 -6 26 4 23 2 25 -22 19 -14 -3 -34 -16 -44 -27 -14 -16 -20 -19 -26 -9 -6 9 -16 8 -43 -5 l-36 -17 -7 -89 c-5 -63 -11 -91 -21 -95 -8 -3 -87 2 -177 11 -230 22 -327 28 -327 19 -1 -5 -2 -31 -4 -60 -2 -28 0 -57 4 -63 11 -18 295 -60 406 -60 l35 0 -7 65 c-5 46 -3 65 5 65 6 0 11 -15 11 -34 0 -18 3 -47 6 -64 6 -28 10 -31 48 -34 l41 -3 3 -97 c3 -94 2 -97 -20 -100 -26 -3 -25 6 -62 -653 -25 -436 -28 -457 -87 -609 -82 -211 -242 -590 -357 -846 -78 -173 -132 -319 -132 -357 0 -16 7 -27 20 -30 35 -9 29 -61 -35 -293 -8 -30 -14 -59 -12 -63 1 -5 36 53 77 129 91 168 149 248 209 285 50 32 86 36 155 15 100 -30 159 -105 175 -221 6 -39 19 -227 31 -420 11 -192 24 -397 30 -455 5 -58 12 -166 15 -240 4 -74 11 -147 17 -163 11 -28 23 -35 178 -100 69 -30 75 -35 78 -64 3 -27 -2 -34 -30 -49 -60 -31 -95 -33 -212 -13 -61 10 -115 19 -119 19 -4 0 2 -13 14 -29 27 -36 20 -66 -13 -55 -24 7 -137 83 -176 118 -40 36 -54 75 -63 184 -8 92 -55 412 -62 418 -1 2 -73 -73 -160 -167 -200 -214 -273 -269 -356 -269 -14 0 -88 15 -163 34 -77 18 -138 29 -138 23 0 -16 165 -327 250 -473 246 -421 462 -628 724 -694 156 -39 255 -21 353 64 87 76 208 264 230 357 13 59 84 555 129 909 15 118 30 219 34 223 4 4 60 -2 124 -13 65 -12 120 -19 122 -17 15 15 195 732 277 1102 66 294 143 662 153 722 l6 42 97 32 c630 207 1070 565 1165 950 9 36 16 105 16 155 l0 89 -43 -77 c-49 -90 -109 -165 -144 -181 -24 -11 -29 -8 -76 43 -28 30 -66 79 -84 108 l-34 53 -19 -23 c-22 -26 -26 -12 -9 26 9 20 7 40 -10 103 -47 174 -9 328 121 500 27 36 47 71 45 77 -11 27 -134 173 -210 249 -93 92 -196 176 -306 249 -42 28 -77 51 -77 52 -2 1 20 144 31 204 l6 32 -578 0 -578 0 0 -98z"/>
<path d="M4868 6075 c-2 -3 2 -40 10 -82 19 -103 20 -287 3 -391 -7 -45 -11 -85 -8 -88 2 -3 45 -7 93 -10 49 -3 132 -9 184 -15 217 -23 217 -23 228 -2 18 35 21 120 6 189 -17 82 -17 87 -4 79 6 -3 10 -15 10 -25 0 -11 5 -30 11 -44 l12 -25 43 22 c42 20 44 23 38 55 -5 25 -3 33 5 28 6 -4 11 -16 11 -26 0 -25 15 -33 47 -25 23 5 24 9 19 40 -8 43 5 46 21 6 11 -29 12 -30 49 -20 151 41 238 89 269 150 19 35 21 58 11 132 l-7 57 -523 0 c-287 0 -525 -2 -528 -5z"/>
<path d="M3440 5833 c0 -32 -7 -80 -15 -107 -23 -76 -23 -76 49 -76 39 0 68 5 72 12 4 6 2 14 -4 16 -18 6 -14 19 8 25 11 3 20 10 20 15 0 6 -9 14 -20 17 -26 8 -26 29 0 22 26 -7 33 6 25 44 -5 24 -18 35 -66 59 -32 17 -61 30 -64 30 -3 0 -5 -26 -5 -57z"/>
<path d="M3602 5774 c3 -32 7 -39 31 -45 16 -4 55 -3 88 3 45 8 59 14 59 27 0 14 -15 20 -72 30 -40 7 -81 15 -91 18 -16 4 -18 -1 -15 -33z"/>
<path d="M3862 5796 c-51 -13 -76 -44 -43 -53 28 -7 27 -30 0 -29 -32 1 -35 -22 -4 -26 14 -2 24 -7 23 -13 -2 -5 -11 -9 -20 -8 -10 2 -18 -4 -18 -12 0 -8 3 -15 8 -15 4 -1 26 -4 48 -9 l42 -8 5 66 c4 36 9 78 13 94 7 30 7 30 -54 13z"/>
<path d="M3732 5711 c-10 -6 -7 -10 12 -13 18 -4 26 -1 26 8 0 16 -18 18 -38 5z"/>
<path d="M3578 5665 c-11 -24 -10 -29 7 -41 46 -34 154 -23 176 17 16 31 2 39 -89 46 l-81 6 -13 -28z"/>
</g>
<g id="layer105" fill="#c223ac" stroke="none">
<path d="M4170 6067 c0 -62 -94 -184 -177 -228 -18 -10 -39 -35 -53 -63 -19 -40 -21 -56 -15 -110 5 -52 4 -64 -9 -69 -10 -4 -16 -18 -16 -36 0 -32 5 -34 126 -47 34 -3 67 -9 73 -13 8 -5 8 -37 0 -122 -11 -114 -19 -139 -45 -139 -11 0 -14 -21 -14 -92 0 -157 42 -1983 45 -1987 2 -2 33 -6 69 -8 63 -5 67 -4 93 24 16 17 122 214 237 439 l208 409 20 145 c10 80 44 334 74 564 51 381 55 421 40 431 -13 10 -16 31 -16 100 0 77 2 87 19 92 11 3 21 17 25 35 9 44 7 96 -3 102 -10 6 -9 14 14 161 19 118 16 193 -12 348 l-16 87 -333 0 -334 0 0 -23z"/>
<path d="M5945 5992 c0 -88 -3 -102 -25 -134 -33 -49 -64 -66 -199 -113 -64 -22 -117 -46 -117 -52 -1 -7 -2 -20 -3 -28 0 -8 -6 -15 -12 -15 -7 0 -9 11 -6 26 4 23 2 25 -22 19 -14 -3 -34 -16 -44 -27 -14 -16 -20 -19 -26 -9 -6 9 -16 8 -43 -5 l-36 -17 -4 -84 c-2 -46 -9 -88 -16 -95 -8 -8 -56 -7 -184 5 -251 24 -328 29 -328 20 -1 -4 -2 -31 -4 -60 -2 -28 0 -57 4 -63 11 -18 295 -60 406 -60 l35 0 -7 65 c-5 46 -3 65 5 65 6 0 11 -15 11 -34 0 -18 3 -47 6 -64 6 -28 10 -31 48 -34 l41 -3 3 -97 c3 -94 2 -97 -20 -100 -26 -3 -25 6 -62 -653 -25 -436 -28 -457 -87 -609 -82 -211 -242 -590 -357 -846 -78 -173 -132 -319 -132 -357 0 -16 7 -27 20 -30 35 -9 29 -61 -35 -293 -8 -30 -14 -59 -12 -63 1 -5 36 53 77 129 91 168 149 248 209 285 50 32 86 36 155 15 100 -30 159 -105 175 -221 6 -39 19 -227 31 -420 11 -192 24 -397 30 -455 5 -58 12 -166 15 -240 4 -74 11 -147 17 -163 11 -28 23 -35 178 -100 69 -30 75 -35 78 -64 3 -27 -2 -34 -30 -49 -60 -31 -95 -33 -212 -13 -61 10 -115 19 -119 19 -4 0 2 -13 14 -29 27 -36 20 -66 -13 -55 -24 7 -137 83 -176 118 -40 36 -54 75 -63 184 -8 92 -55 412 -62 418 -1 2 -73 -73 -160 -167 -200 -214 -273 -269 -356 -269 -14 0 -88 15 -163 34 -77 18 -138 29 -138 23 0 -16 165 -327 250 -473 246 -421 462 -628 724 -694 156 -39 255 -21 353 64 87 76 208 264 230 357 13 59 84 555 129 909 15 118 30 219 34 223 4 4 60 -2 124 -13 65 -12 120 -19 122 -17 15 15 195 732 277 1102 66 294 143 662 153 722 l6 42 97 32 c630 207 1070 565 1165 950 9 36 16 105 16 155 l0 89 -43 -77 c-49 -90 -109 -165 -144 -181 -24 -11 -29 -8 -76 43 -28 30 -66 79 -84 108 l-34 53 -19 -23 c-22 -26 -26 -12 -9 26 9 20 7 40 -10 103 -47 174 -9 328 121 500 27 36 47 71 45 77 -11 27 -134 173 -210 249 -93 92 -196 176 -306 249 -42 28 -77 51 -77 52 -2 1 20 144 31 204 l6 32 -578 0 -578 0 0 -98z"/>
<path d="M4868 6075 c-3 -3 4 -47 14 -98 17 -76 19 -117 15 -232 -3 -77 -11 -159 -18 -183 -6 -23 -9 -45 -7 -48 3 -3 43 -7 89 -10 46 -2 134 -10 194 -16 61 -6 134 -11 164 -12 l55 -1 13 64 c12 57 11 71 -8 143 -11 44 -17 83 -14 86 9 9 26 -13 30 -39 2 -13 6 -34 10 -46 l7 -22 40 20 c35 18 39 24 36 52 -4 43 15 50 27 9 6 -21 14 -31 23 -27 7 3 20 5 28 5 11 0 13 9 8 40 -8 48 9 54 25 9 10 -28 13 -30 42 -24 17 4 37 8 43 9 6 1 16 4 21 7 6 4 33 14 62 23 123 40 176 118 160 234 l-9 62 -522 0 c-288 0 -525 -2 -528 -5z"/>
<path d="M4834 5325 c-3 -7 -4 -41 -2 -76 l3 -64 85 -12 c118 -17 435 -53 466 -53 25 0 25 1 22 78 l-3 77 -45 2 c-125 7 -307 26 -408 42 -87 14 -115 15 -118 6z"/>
<path d="M3345 5279 c3 -30 12 -169 20 -309 8 -140 35 -590 60 -1000 25 -410 48 -802 51 -872 4 -70 10 -131 13 -135 3 -5 28 -17 56 -28 93 -35 175 -145 175 -236 0 -35 13 -44 85 -60 90 -19 252 -16 395 9 69 12 170 23 224 24 l99 3 22 39 c47 84 134 147 237 170 l47 11 57 115 c73 149 381 887 399 958 12 46 75 966 75 1096 0 41 12 38 -255 66 -104 11 -202 23 -217 26 -16 3 -28 2 -28 -2 0 -3 -18 -140 -39 -303 -22 -163 -42 -314 -45 -336 -35 -297 -58 -459 -70 -498 -7 -25 -41 -95 -74 -154 -32 -59 -126 -240 -207 -401 -88 -175 -158 -301 -173 -312 -19 -16 -40 -20 -97 -20 -40 0 -109 -7 -152 -15 -43 -8 -89 -15 -103 -15 -45 0 -7 18 74 34 44 9 81 18 83 19 5 6 -41 2068 -47 2077 -3 5 -59 14 -125 19 -68 6 -174 23 -245 41 -69 17 -164 34 -213 37 l-88 6 6 -54z m873 -2303 c11 -11 10 -36 -7 -146 -11 -73 -23 -135 -26 -138 -15 -15 -14 16 5 132 11 70 18 131 15 136 -3 5 -30 12 -60 15 -30 4 -55 12 -55 18 0 14 112 0 128 -17z"/>
<path d="M7624 5208 c-98 -133 -140 -254 -131 -374 3 -40 14 -91 24 -115 l19 -44 37 50 c30 42 137 216 202 331 l18 31 -54 92 c-29 50 -57 91 -61 91 -4 0 -29 -28 -54 -62z"/>
<path d="M7724 4923 c-43 -71 -100 -161 -127 -202 l-49 -74 16 -35 c19 -39 92 -137 125 -166 21 -19 21 -19 69 30 52 54 142 217 142 257 0 42 -29 156 -61 239 -17 43 -32 78 -34 78 -2 0 -38 -57 -81 -127z"/>
</g>
<g id="layer106" fill="#7185b0" stroke="none">
<path d="M5947 6042 c29 -171 -28 -240 -256 -311 -72 -23 -85 -30 -86 -49 -1 -13 -7 -28 -13 -34 -9 -9 -12 -5 -12 19 0 27 -3 30 -26 25 -14 -2 -30 -15 -36 -28 -13 -27 -28 -32 -28 -9 0 19 -4 19 -40 0 -30 -15 -32 -22 -45 -147 -3 -31 -12 -58 -18 -61 -7 -2 -70 2 -141 9 -227 24 -361 33 -366 24 -3 -5 -3 -35 0 -66 l5 -58 60 -12 c53 -11 192 -27 323 -38 l42 -4 0 64 c0 64 13 92 24 51 3 -12 6 -43 6 -69 l0 -48 44 0 c25 0 48 -5 52 -11 3 -6 3 -53 -1 -105 -6 -81 -9 -94 -25 -94 -22 0 -25 -24 -45 -395 -9 -148 -22 -368 -30 -488 l-15 -218 -54 -142 c-30 -78 -68 -173 -85 -212 -17 -38 -71 -164 -120 -280 -49 -115 -121 -280 -159 -365 -78 -173 -132 -319 -132 -357 0 -16 7 -27 20 -30 35 -9 29 -61 -35 -293 -8 -30 -14 -59 -12 -63 1 -5 36 53 77 129 91 168 149 248 209 285 50 32 86 36 155 15 100 -30 159 -105 175 -221 6 -39 19 -227 31 -420 11 -192 24 -397 30 -455 5 -58 12 -166 15 -240 4 -74 11 -147 17 -163 11 -28 23 -35 178 -100 69 -30 75 -35 78 -64 3 -27 -2 -34 -30 -49 -60 -31 -95 -33 -212 -13 -61 10 -115 19 -119 19 -4 0 2 -13 14 -29 27 -36 20 -66 -13 -55 -24 7 -137 83 -176 118 -40 36 -54 75 -63 184 -8 92 -55 412 -62 418 -1 2 -73 -73 -160 -167 -200 -214 -273 -269 -356 -269 -14 0 -88 15 -163 34 -77 18 -138 29 -138 23 0 -16 165 -327 250 -473 246 -421 462 -628 724 -694 156 -39 255 -21 353 64 87 76 208 264 230 357 13 59 84 555 129 909 15 118 30 219 34 223 4 4 60 -2 124 -13 65 -12 120 -19 122 -17 15 15 195 732 277 1102 66 294 143 662 153 722 l6 42 97 32 c630 207 1070 565 1165 950 9 37 16 104 15 155 l0 89 -36 -73 c-42 -88 -134 -192 -169 -192 -26 0 -98 80 -147 164 l-27 48 -20 -24 c-22 -26 -25 -18 -9 27 10 26 8 43 -11 99 -39 119 -27 255 35 376 12 25 48 80 79 124 l57 78 -57 75 c-113 147 -290 309 -463 425 -42 28 -77 51 -77 52 -2 1 20 144 31 204 l6 32 -581 0 -581 -1 8 -47z"/>
<path d="M3483 2623 c-20 -69 -21 -87 -12 -158 5 -44 12 -86 14 -93 9 -26 35 -257 35 -314 0 -49 -3 -58 -18 -58 -10 0 -71 20 -136 45 -66 25 -120 45 -122 45 -1 0 -23 -51 -49 -112 -26 -62 -71 -159 -101 -215 l-54 -102 110 -66 c166 -100 381 -200 549 -255 83 -28 159 -50 168 -50 12 0 29 21 48 58 16 31 55 83 85 114 47 48 62 57 103 63 40 6 54 4 75 -12 46 -33 67 -88 67 -176 l0 -77 30 -9 c17 -4 82 -21 146 -36 116 -28 117 -28 163 -11 26 10 68 35 94 56 42 33 343 350 349 368 3 8 -337 246 -341 240 -2 -1 -10 -23 -19 -48 -30 -85 -66 -165 -76 -168 -13 -4 -14 0 -1 32 9 24 8 25 -23 20 l-32 -5 24 20 c13 12 29 21 36 21 15 0 48 75 64 145 6 28 25 142 41 255 16 113 41 240 55 282 13 43 26 96 27 119 l3 42 -54 18 c-161 56 -304 62 -545 23 -239 -39 -331 -30 -606 56 -36 11 -67 20 -70 20 -3 0 -15 -35 -27 -77z"/>
<path d="M3102 2128 c-10 -18 -38 -69 -62 -113 -24 -44 -67 -119 -96 -166 -30 -47 -54 -91 -54 -97 0 -15 100 -94 113 -89 19 6 104 164 163 303 31 74 55 135 53 137 -24 17 -90 57 -93 57 -2 0 -13 -15 -24 -32z"/>
<path d="M4695 1953 c-5 -42 -4 -58 7 -64 7 -4 85 -57 172 -118 88 -61 161 -109 163 -108 2 2 -3 41 -11 87 -11 61 -21 89 -38 106 -23 22 -259 154 -276 154 -6 0 -13 -25 -17 -57z"/>
</g>
<g id="layer107" fill="#f20fd7" stroke="none">
<path d="M4170 6067 c0 -62 -94 -184 -177 -228 -18 -10 -39 -35 -53 -63 -19 -40 -21 -56 -15 -110 5 -52 4 -64 -9 -69 -10 -4 -16 -18 -16 -36 0 -32 5 -34 126 -47 34 -3 67 -9 73 -13 8 -5 8 -37 0 -122 -11 -114 -19 -139 -45 -139 -11 0 -14 -21 -14 -92 0 -157 42 -1983 45 -1987 2 -2 33 -6 69 -8 63 -5 67 -4 93 24 16 17 122 214 237 439 l209 409 33 265 c68 539 105 826 109 846 3 16 -1 23 -15 27 -22 6 -25 37 -13 136 4 39 11 55 23 58 26 7 43 123 21 137 -10 6 -9 14 14 161 19 118 16 193 -12 348 l-16 87 -333 0 -334 0 0 -23z"/>
<path d="M5947 6042 c29 -171 -28 -240 -256 -311 -72 -23 -85 -30 -86 -49 -1 -13 -7 -28 -13 -34 -9 -9 -12 -5 -12 19 0 27 -3 30 -26 25 -14 -2 -30 -15 -36 -28 -13 -27 -28 -32 -28 -9 0 19 -4 19 -40 0 -30 -15 -32 -22 -45 -147 -3 -31 -12 -58 -18 -61 -7 -2 -70 2 -141 9 -227 24 -361 33 -366 24 -3 -5 -3 -35 0 -66 l5 -58 60 -12 c53 -11 192 -27 323 -38 l42 -4 0 64 c0 64 13 92 24 51 3 -12 6 -43 6 -69 l0 -48 44 0 c25 0 48 -5 52 -11 3 -6 3 -53 -1 -105 -6 -81 -9 -94 -25 -94 -22 0 -25 -24 -45 -395 -9 -148 -22 -368 -30 -488 l-15 -218 -54 -142 c-30 -78 -68 -173 -85 -212 -17 -38 -71 -164 -120 -280 -49 -115 -121 -280 -159 -365 -78 -173 -132 -319 -132 -357 0 -16 7 -27 20 -30 35 -9 29 -61 -35 -293 -8 -30 -14 -59 -12 -63 1 -5 36 53 77 129 91 168 149 248 209 285 50 32 86 36 155 15 100 -30 159 -105 175 -221 6 -39 19 -227 31 -420 11 -192 24 -397 30 -455 5 -58 12 -166 15 -240 4 -74 11 -147 17 -163 11 -28 23 -35 178 -100 69 -30 75 -35 78 -64 3 -27 -2 -34 -30 -49 -60 -31 -95 -33 -212 -13 -61 10 -115 19 -119 19 -4 0 2 -13 14 -29 27 -36 20 -66 -13 -55 -28 8 -166 104 -191 132 -27 30 -46 90 -47 147 0 46 -25 233 -51 384 l-11 63 -91 -98 c-168 -184 -290 -299 -342 -323 -60 -28 -103 -25 -272 17 -62 15 -113 24 -113 18 0 -15 166 -329 250 -472 246 -421 462 -628 724 -694 156 -39 255 -21 353 64 87 76 208 264 230 357 13 59 84 555 129 909 15 118 30 219 34 223 4 4 60 -2 124 -13 65 -12 120 -19 122 -17 15 15 195 732 277 1102 66 294 143 662 153 722 l6 42 97 32 c630 207 1070 565 1165 950 9 37 16 104 15 155 l0 89 -36 -73 c-42 -88 -134 -192 -169 -192 -26 0 -98 80 -147 164 l-27 48 -20 -24 c-22 -26 -25 -18 -9 27 10 26 8 43 -11 99 -39 119 -27 255 35 376 12 25 48 80 79 124 l57 78 -57 75 c-113 147 -290 309 -463 425 -42 28 -77 51 -77 52 -2 1 20 144 31 204 l6 32 -581 0 -581 -1 8 -47z"/>
<path d="M4868 6075 c-3 -3 4 -47 14 -98 17 -76 19 -117 15 -232 -3 -77 -11 -159 -18 -183 -6 -23 -10 -45 -7 -47 2 -3 56 -7 119 -10 63 -3 150 -10 194 -15 44 -6 105 -11 134 -13 l55 -2 13 64 c12 57 11 71 -8 143 -11 44 -17 83 -14 86 9 9 26 -13 29 -39 1 -13 7 -32 12 -42 10 -17 13 -18 48 -3 34 14 37 19 34 48 -4 44 15 51 27 10 6 -21 14 -31 23 -27 7 3 20 5 28 5 11 0 13 9 8 40 -8 48 9 54 25 9 10 -28 13 -30 42 -24 17 4 37 8 43 9 6 1 16 4 21 7 6 4 33 14 62 23 123 40 176 118 160 234 l-9 62 -522 0 c-288 0 -525 -2 -528 -5z"/>
<path d="M3345 5279 c3 -30 12 -169 20 -309 8 -140 35 -590 60 -1000 25 -410 48 -802 51 -872 4 -70 10 -131 13 -135 3 -5 28 -17 56 -28 93 -35 175 -145 175 -236 0 -35 13 -44 85 -60 90 -19 252 -16 395 9 69 12 170 23 224 24 l99 3 22 39 c47 84 134 147 237 170 l47 11 59 120 c115 235 386 907 402 995 5 30 18 219 30 420 11 201 25 432 31 514 5 81 9 150 7 151 -9 8 -483 54 -489 48 -6 -8 -73 -482 -125 -889 -12 -100 -28 -201 -34 -225 -6 -24 -42 -100 -79 -169 -38 -69 -133 -252 -211 -408 -85 -168 -153 -291 -168 -302 -19 -16 -40 -20 -97 -20 -40 0 -109 -7 -152 -15 -43 -8 -89 -15 -103 -15 -45 0 -7 18 74 34 44 9 81 18 83 19 5 6 -41 2068 -47 2077 -3 5 -59 14 -125 19 -68 6 -174 23 -245 41 -69 17 -164 34 -213 37 l-88 6 6 -54z m873 -2303 c11 -11 10 -36 -7 -146 -11 -73 -23 -135 -26 -138 -15 -15 -14 16 5 132 11 70 18 131 15 136 -3 5 -30 12 -60 15 -30 4 -55 12 -55 18 0 14 112 0 128 -17z"/>
<path d="M4836 5314 c-3 -9 -6 -40 -6 -69 0 -50 2 -54 28 -59 37 -8 243 -33 372 -46 58 -5 120 -13 138 -16 l32 -5 0 76 c0 41 -3 75 -7 75 -60 0 -318 25 -415 40 -151 24 -135 23 -142 4z"/>
<path d="M7627 5206 c-62 -85 -114 -197 -126 -273 -10 -65 0 -175 20 -226 16 -38 25 -28 113 117 40 66 92 151 115 188 22 37 41 70 41 74 0 10 -104 184 -110 184 -3 0 -27 -29 -53 -64z"/>
<path d="M7774 5003 c-58 -103 -147 -248 -153 -253 -4 -3 -22 -27 -41 -54 l-33 -49 19 -38 c22 -44 124 -168 139 -168 40 -3 195 231 195 293 0 56 -79 316 -95 316 -2 0 -16 -21 -31 -47z"/>
</g>
<g id="layer108" fill="#f4d916" stroke="none">
<path d="M3653 6143 c42 -2 112 -2 155 0 42 1 7 3 -78 3 -85 0 -120 -2 -77 -3z"/>
<path d="M3410 6106 c0 -8 -5 -16 -11 -18 -17 -6 7 -99 34 -140 45 -65 219 -138 331 -138 74 0 190 29 239 59 78 48 149 155 144 216 l-2 30 -368 2 c-307 2 -367 0 -367 -11z"/>
<path d="M4170 6067 c0 -62 -94 -184 -177 -228 -18 -10 -39 -35 -53 -63 -19 -40 -21 -56 -15 -110 5 -52 4 -64 -9 -69 -10 -4 -16 -18 -16 -36 0 -32 5 -34 126 -47 34 -3 67 -9 73 -13 8 -5 8 -37 0 -122 -11 -114 -19 -139 -45 -139 -11 0 -14 -21 -14 -92 0 -157 42 -1983 45 -1987 2 -2 33 -6 69 -8 63 -5 67 -4 93 24 16 17 122 214 237 439 l209 409 33 260 c34 259 34 260 18 360 -23 147 -21 349 4 455 11 47 30 109 41 138 12 29 21 66 21 83 0 22 6 32 19 36 11 3 21 17 25 35 9 44 7 96 -3 102 -10 6 -9 14 14 161 19 118 16 193 -12 348 l-16 87 -333 0 -334 0 0 -23z"/>
<path d="M4868 6075 c-3 -3 3 -45 13 -93 28 -129 25 -289 -7 -439 l-6 -32 78 0 c44 0 142 -6 219 -15 77 -8 156 -16 175 -18 l34 -3 13 64 c12 57 11 71 -8 143 -11 44 -17 83 -14 86 9 9 26 -13 29 -39 7 -53 14 -59 54 -45 33 12 37 17 37 47 0 45 18 52 30 11 6 -21 14 -31 23 -27 7 3 20 5 28 5 11 0 13 9 8 40 -8 48 9 54 25 9 10 -28 13 -30 42 -24 17 4 37 8 43 9 6 1 16 4 21 7 6 4 33 14 62 23 123 40 176 118 160 234 l-9 62 -522 0 c-288 0 -525 -2 -528 -5z"/>
<path d="M3440 5833 c0 -32 -7 -80 -15 -107 -23 -76 -23 -76 49 -76 39 0 68 5 72 12 4 6 2 14 -4 16 -18 6 -14 19 8 25 11 3 20 10 20 15 0 6 -9 14 -20 17 -26 8 -26 29 1 22 26 -7 35 16 21 48 -9 19 -63 55 -124 83 -5 2 -8 -23 -8 -55z"/>
<path d="M3600 5775 c0 -38 12 -48 59 -48 44 1 111 15 117 25 9 15 0 19 -73 34 -37 8 -76 17 -85 20 -15 4 -18 -1 -18 -31z"/>
<path d="M3851 5787 c-36 -13 -54 -37 -27 -37 10 0 16 -8 16 -21 0 -16 -4 -19 -20 -14 -14 4 -20 2 -20 -9 0 -8 11 -16 25 -18 14 -2 26 -7 26 -13 0 -5 -12 -11 -26 -13 -22 -3 -37 -21 -17 -22 4 -1 26 -5 50 -9 l42 -8 0 56 c0 31 4 71 9 89 11 37 2 40 -58 19z"/>
<path d="M3578 5664 c-11 -22 -10 -28 7 -40 48 -35 159 -23 174 19 7 20 4 23 -33 34 -22 7 -62 13 -89 13 -42 0 -49 -3 -59 -26z"/>
<path d="M5411 5550 c-1 -19 -4 -45 -7 -57 -5 -16 -2 -23 9 -23 11 0 14 10 10 48 -6 62 -11 75 -12 32z"/>
</g>
<g id="layer109" fill="#779be7" stroke="none">
<path d="M5940 6075 c0 -13 7 -15 35 -9 19 3 58 10 87 14 50 7 48 8 -34 9 -73 1 -88 -2 -88 -14z"/>
<path d="M3345 5279 c3 -30 12 -169 20 -309 8 -140 35 -590 60 -1000 25 -410 48 -802 51 -872 4 -70 10 -131 13 -135 3 -5 28 -17 56 -28 93 -35 175 -145 175 -236 0 -35 13 -44 85 -60 90 -19 252 -16 395 9 69 12 170 23 224 24 l99 3 22 39 c12 22 36 54 54 73 38 40 134 90 189 99 40 6 41 8 92 113 29 58 110 243 181 410 l127 305 -49 55 c-126 142 -255 374 -328 596 -22 66 -40 117 -41 112 -4 -68 -53 -425 -64 -460 -7 -25 -41 -95 -74 -154 -32 -59 -126 -240 -207 -401 -88 -175 -158 -301 -173 -312 -19 -16 -40 -20 -97 -20 -40 0 -109 -7 -152 -15 -43 -8 -89 -15 -103 -15 -45 0 -7 18 74 34 44 9 81 18 83 19 5 6 -41 2068 -47 2077 -3 5 -59 14 -125 19 -68 6 -174 23 -245 41 -69 17 -164 34 -213 37 l-88 6 6 -54z m873 -2303 c11 -11 10 -36 -7 -146 -11 -73 -23 -135 -26 -138 -15 -15 -14 16 5 132 11 70 18 131 15 136 -3 5 -30 12 -60 15 -30 4 -55 12 -55 18 0 14 112 0 128 -17z"/>
<path d="M5174 3623 c-73 -177 -209 -493 -272 -633 -78 -173 -132 -319 -132 -357 0 -16 7 -27 20 -30 35 -9 29 -61 -35 -293 -8 -30 -14 -59 -12 -63 1 -5 36 53 77 129 91 168 149 248 209 285 50 32 86 36 155 15 100 -30 159 -105 175 -221 6 -39 19 -227 31 -420 11 -192 24 -397 30 -455 5 -58 12 -166 15 -240 4 -74 11 -147 17 -163 11 -28 23 -35 178 -100 69 -30 75 -35 78 -64 3 -27 -2 -34 -30 -49 -60 -31 -95 -33 -212 -13 -61 10 -115 19 -119 19 -4 0 2 -13 14 -29 27 -36 20 -66 -13 -55 -28 8 -166 104 -191 132 -27 30 -46 90 -47 147 0 46 -25 233 -51 384 l-11 63 -91 -98 c-168 -184 -290 -299 -342 -323 -60 -28 -103 -25 -272 17 -62 15 -113 24 -113 18 0 -15 166 -329 250 -472 246 -421 462 -628 724 -694 156 -39 255 -21 353 64 87 76 208 264 230 357 13 59 84 555 129 909 15 118 30 219 34 223 4 4 60 -2 124 -13 65 -12 120 -19 122 -17 15 15 195 732 277 1102 66 298 143 663 153 724 7 43 6 44 -17 37 -72 -21 -247 -58 -334 -70 -326 -48 -536 -23 -760 92 -92 48 -218 136 -269 191 -17 17 -33 31 -37 31 -4 0 -19 -30 -35 -67z"/>
<path d="M3357 3043 c-14 -13 -6 -23 17 -23 17 0 31 -11 46 -36 12 -19 21 -37 19 -39 -2 -2 -35 17 -73 42 -37 24 -70 42 -72 40 -3 -2 20 -23 50 -46 31 -23 59 -49 64 -59 5 -9 7 -57 4 -105 -4 -76 -8 -90 -26 -102 -11 -8 -120 -55 -241 -105 -372 -155 -454 -206 -512 -317 -30 -57 -49 -123 -36 -123 4 0 53 18 110 40 152 60 242 81 370 86 l111 4 70 73 c140 145 192 215 211 281 9 35 1 197 -15 303 -9 57 -71 112 -97 86z"/>
<path d="M4702 2834 c-53 -26 -135 -108 -145 -144 -4 -16 2 -21 31 -29 105 -26 144 -33 152 -25 7 8 70 204 70 218 0 15 -61 4 -108 -20z"/>
<path d="M3483 2623 c-20 -69 -21 -87 -12 -158 5 -44 12 -86 14 -93 9 -26 35 -257 35 -314 0 -49 -3 -58 -18 -58 -10 0 -71 20 -137 45 -65 25 -120 43 -122 41 -2 -2 -28 -61 -57 -132 -29 -71 -73 -165 -99 -209 l-46 -80 52 -33 c106 -67 255 -148 372 -200 117 -52 372 -142 404 -142 9 0 29 24 46 58 16 31 55 83 85 114 47 48 62 57 103 63 29 5 58 3 72 -3 40 -19 68 -86 73 -179 l5 -83 36 -9 c249 -65 274 -66 357 -13 52 34 215 199 342 346 l42 48 -173 120 -172 119 -17 -56 c-9 -31 -21 -62 -27 -69 -7 -8 -17 -33 -24 -56 -14 -47 -33 -54 -29 -9 2 26 0 29 -16 20 -10 -5 -24 -6 -31 -2 -9 6 0 16 30 32 35 19 47 34 62 74 18 48 68 325 82 450 3 33 17 94 30 135 31 100 47 182 38 191 -5 4 -48 20 -98 35 -81 25 -106 28 -245 28 -120 1 -175 -3 -245 -19 -67 -15 -126 -20 -230 -20 -147 1 -144 0 -385 75 -36 11 -67 20 -70 20 -3 0 -15 -35 -27 -77z"/>
<path d="M5067 2656 c-21 -8 -48 -22 -59 -33 -85 -76 -298 -478 -298 -562 0 -15 20 -32 73 -61 136 -76 196 -105 202 -98 4 3 -5 61 -20 128 -23 106 -26 145 -11 129 5 -4 68 -280 92 -399 16 -80 81 -521 90 -610 4 -36 13 -77 20 -92 13 -25 167 -148 186 -148 20 0 4 22 -54 74 -34 30 -59 58 -55 62 4 4 15 0 25 -9 20 -18 106 -50 162 -60 34 -6 34 -6 -12 19 -68 35 -59 44 19 18 10 -3 3 4 -16 15 -55 36 -28 35 66 -2 48 -19 108 -37 133 -41 33 -4 20 3 -53 27 -88 30 -139 58 -126 71 3 3 27 -6 54 -19 90 -44 220 -68 201 -36 -3 4 -34 19 -68 31 -96 36 -175 77 -183 97 -3 10 -11 77 -16 148 -5 72 -15 211 -24 310 -18 223 -32 437 -45 665 -5 105 -16 196 -25 228 -21 71 -76 126 -146 146 -62 19 -63 19 -112 2z"/>
<path d="M3425 2525 c-6 -7 -56 -63 -113 -124 l-103 -109 58 -17 c32 -9 95 -36 141 -60 75 -40 82 -42 82 -23 0 22 -49 341 -53 345 -2 1 -7 -4 -12 -12z"/>
<path d="M3097 2118 c-13 -24 -45 -81 -69 -128 -25 -47 -66 -116 -92 -155 -25 -38 -45 -77 -44 -85 3 -13 95 -90 108 -90 13 0 94 150 155 285 36 80 65 149 65 153 0 6 -63 47 -92 60 -3 2 -17 -16 -31 -40z"/>
<path d="M4707 2003 c-2 -4 -7 -29 -11 -54 l-7 -47 159 -111 c88 -61 166 -113 174 -116 13 -5 13 4 2 75 -7 44 -16 85 -19 90 -15 25 -291 175 -298 163z"/>
<path d="M4092 1501 c-10 -6 -7 -19 16 -57 15 -27 46 -83 68 -124 38 -72 39 -74 45 -45 18 84 2 163 -41 207 -28 28 -63 35 -88 19z"/>
</g>
<g id="layer110" fill="#a9a4ad" stroke="none">
<path d="M987 6083 c-3 -5 -30 -84 -60 -178 -264 -809 -443 -1569 -512 -2174 -22 -189 -33 -345 -26 -352 3 -4 53 -20 111 -37 58 -17 154 -51 214 -76 l109 -45 44 47 c134 143 338 529 422 797 39 124 56 245 44 305 -8 44 -10 45 -55 51 -71 11 -116 48 -131 110 -8 32 16 69 46 69 35 0 81 -34 115 -85 17 -26 32 -51 34 -57 2 -5 29 0 62 12 107 40 199 155 276 342 96 233 163 532 244 1092 14 92 27 171 30 174 4 3 11 1 18 -6 13 -13 -12 -197 -78 -562 -75 -411 -123 -586 -221 -790 -47 -97 -66 -125 -127 -186 -53 -53 -85 -76 -126 -91 l-55 -21 -4 -108 c-7 -205 -4 -277 14 -344 45 -159 133 -315 247 -436 l64 -67 55 41 c134 101 300 135 331 66 46 -100 -222 -404 -432 -491 -104 -43 -182 -22 -196 53 -10 55 20 108 125 216 l93 97 -66 72 c-122 132 -205 280 -250 446 -18 67 -26 83 -31 68 -128 -334 -258 -582 -390 -745 -36 -43 -65 -81 -65 -84 0 -2 37 -24 83 -49 348 -189 507 -307 507 -377 0 -63 -105 -130 -202 -130 -96 0 -457 120 -723 241 -72 32 -133 59 -136 59 -11 0 10 -113 37 -200 100 -327 355 -571 728 -696 431 -143 945 -119 1347 64 64 29 66 31 72 72 8 63 55 149 112 207 60 59 142 101 470 238 116 48 215 92 220 97 10 9 24 163 17 185 -6 20 -32 23 -58 6 -23 -15 -26 -15 -39 3 -16 21 -15 19 -20 54 -2 14 -7 38 -11 54 -7 28 -6 29 25 23 20 -4 44 -1 66 10 34 16 36 16 65 -5 l30 -23 0 88 c0 80 -16 365 -95 1678 -32 530 -31 524 -54 518 -15 -4 -19 4 -24 58 -4 34 -7 84 -7 110 0 55 3 57 95 61 44 3 50 6 53 26 3 17 -2 25 -17 29 -26 7 -26 14 0 110 26 92 23 161 -12 287 l-24 86 -1187 0 c-653 0 -1189 -3 -1191 -7z"/>
<path d="M3394 6054 c9 -44 44 -127 45 -104 1 37 -26 134 -38 138 -11 4 -12 -4 -7 -34z"/>
<path d="M4170 6067 c0 -62 -94 -184 -177 -228 -18 -10 -39 -35 -53 -63 -19 -40 -21 -56 -15 -110 5 -52 4 -64 -9 -69 -10 -4 -16 -18 -16 -36 0 -32 5 -34 126 -47 34 -3 67 -9 73 -13 8 -5 8 -37 0 -122 -11 -114 -19 -139 -45 -139 -11 0 -14 -21 -14 -92 0 -157 42 -1983 45 -1987 2 -2 33 -6 69 -8 63 -5 67 -4 93 24 16 17 122 214 237 439 l209 409 33 260 c34 259 34 260 18 360 -23 147 -21 349 4 455 11 47 30 109 41 138 12 29 21 66 21 83 0 22 6 32 19 36 27 7 45 123 21 138 -5 3 -7 12 -3 20 4 11 -2 15 -20 15 l-26 0 37 78 c35 73 36 82 36 182 0 58 -8 149 -18 203 l-18 97 -334 0 -334 0 0 -23z"/>
<path d="M5940 6075 c0 -12 7 -15 33 -10 17 3 55 10 82 14 48 8 46 9 -32 10 -69 1 -83 -2 -83 -14z"/>
<path d="M4136 6053 c-10 -45 -79 -128 -131 -159 -44 -26 -75 -54 -58 -54 19 0 99 58 132 95 37 43 75 119 68 138 -2 7 -7 -2 -11 -20z"/>
<path d="M3440 5834 c0 -32 -7 -81 -15 -109 l-15 -50 20 23 c28 33 38 81 30 135 -10 69 -20 69 -20 1z"/>
<path d="M3574 5655 c-9 -22 16 -42 62 -51 43 -8 118 16 122 39 3 15 -5 17 -56 17 -33 0 -73 3 -91 6 -24 5 -32 3 -37 -11z"/>
<path d="M3801 5646 c3 -3 27 -10 53 -15 34 -6 46 -5 43 3 -2 6 -26 12 -53 14 -27 2 -46 1 -43 -2z"/>
<path d="M3444 5616 c-3 -8 -4 -25 -2 -38 3 -23 4 -23 216 -33 118 -5 215 -8 217 -5 1 3 0 19 -2 37 -4 28 -10 32 -44 38 -29 5 -53 1 -93 -15 -62 -26 -128 -22 -169 11 -31 23 -115 27 -123 5z"/>
<path d="M3303 5524 c-14 -6 -18 -89 -7 -142 l6 -30 112 -5 c77 -4 155 -16 256 -40 116 -28 170 -36 270 -39 l125 -3 10 105 c7 75 7 107 0 112 -36 23 -732 61 -772 42z"/>
<path d="M4870 5518 c0 -5 18 -8 40 -8 22 0 40 2 40 4 0 2 -18 6 -40 8 -22 2 -40 0 -40 -4z"/>
<path d="M4880 5453 l0 -38 20 30 c25 38 25 45 0 45 -16 0 -20 -7 -20 -37z"/>
<path d="M3345 5279 c3 -30 12 -169 20 -309 8 -140 35 -590 60 -1000 25 -410 48 -802 51 -872 4 -70 10 -131 13 -135 3 -5 28 -17 56 -28 93 -35 175 -145 175 -236 0 -14 6 -31 13 -36 43 -35 288 -49 410 -24 28 6 63 13 77 16 50 10 145 18 223 19 l80 1 22 39 c12 22 36 54 54 73 38 40 134 90 189 99 40 6 41 8 92 113 29 58 110 243 181 410 l127 305 -49 55 c-126 142 -255 374 -328 596 -22 66 -40 117 -41 112 -4 -68 -53 -425 -64 -460 -7 -25 -41 -95 -74 -154 -32 -59 -126 -240 -207 -401 -88 -175 -158 -301 -173 -312 -19 -16 -40 -20 -97 -20 -40 0 -109 -7 -152 -15 -43 -8 -89 -15 -103 -15 -45 0 -7 18 74 34 44 9 81 18 83 19 5 6 -41 2068 -47 2077 -3 5 -59 14 -125 19 -68 6 -174 23 -245 41 -69 17 -164 34 -213 37 l-88 6 6 -54z m873 -2303 c11 -11 10 -36 -7 -146 -11 -73 -25 -138 -31 -144 -14 -14 -13 -7 10 140 11 69 18 129 15 134 -3 5 -30 12 -60 15 -30 4 -55 12 -55 18 0 14 112 0 128 -17z"/>
<path d="M1175 4560 c-3 -5 1 -25 9 -45 16 -36 62 -65 106 -65 26 0 25 6 -7 53 -35 51 -93 82 -108 57z"/>
<path d="M5174 3623 c-73 -177 -209 -493 -272 -633 -78 -173 -132 -319 -132 -357 0 -16 7 -27 20 -30 35 -9 27 -99 -20 -243 -10 -30 -21 -71 -25 -90 -6 -32 -6 -33 8 -15 7 11 20 34 29 50 44 89 125 227 162 274 48 64 117 111 161 111 87 0 177 -51 220 -123 33 -57 40 -118 65 -532 11 -192 24 -397 30 -455 5 -58 12 -166 15 -240 4 -74 11 -147 17 -163 11 -28 23 -35 178 -100 69 -30 75 -35 78 -64 3 -27 -2 -34 -30 -49 -60 -31 -95 -33 -212 -13 -61 10 -115 19 -119 19 -4 0 2 -13 14 -29 27 -36 20 -66 -13 -55 -24 7 -137 83 -176 118 -40 36 -54 75 -63 183 -7 85 -40 312 -54 373 -2 8 -4 23 -4 33 -1 12 -22 -5 -68 -55 -275 -293 -365 -368 -439 -368 -42 0 -220 36 -275 55 -27 10 -39 11 -39 3 0 -17 162 -323 250 -474 246 -421 462 -628 724 -694 156 -39 255 -21 353 64 87 76 208 264 230 357 13 59 84 555 129 909 15 118 30 219 34 223 4 4 60 -2 124 -13 65 -12 120 -19 122 -17 15 15 195 732 277 1102 66 298 143 663 153 724 7 43 6 44 -17 37 -72 -21 -247 -58 -334 -70 -326 -48 -536 -23 -760 92 -92 48 -218 136 -269 191 -17 17 -33 31 -37 31 -4 0 -19 -30 -35 -67z"/>
<path d="M1885 3555 c-33 -14 -81 -39 -107 -57 -75 -53 -249 -219 -280 -267 -54 -85 -26 -160 55 -147 104 17 292 152 399 286 64 81 105 166 91 189 -16 26 -90 24 -158 -4z"/>
<path d="M380 3166 l0 -176 59 -30 c137 -69 521 -211 666 -246 112 -27 200 -31 249 -10 32 13 76 59 76 79 0 6 -28 38 -63 72 -152 146 -736 441 -949 480 l-38 7 0 -176z"/>
<path d="M3357 3043 c-14 -13 -6 -23 17 -23 17 0 31 -11 46 -36 12 -19 21 -37 19 -39 -2 -2 -35 17 -73 42 -37 24 -70 42 -72 40 -3 -2 20 -23 50 -46 31 -23 59 -49 64 -59 5 -9 7 -57 4 -105 -4 -76 -8 -90 -26 -102 -11 -8 -120 -55 -241 -105 -372 -155 -454 -206 -512 -317 -30 -57 -49 -123 -36 -123 4 0 53 18 110 40 152 60 242 81 370 86 l111 4 70 73 c215 223 227 251 208 463 -7 78 -17 147 -21 155 -27 47 -69 72 -88 52z"/>
<path d="M3499 2923 c-2 -24 3 -133 7 -160 6 -30 12 -34 91 -62 46 -17 89 -31 95 -31 18 0 0 89 -27 135 -13 23 -40 54 -60 69 -39 30 -105 60 -106 49z"/>
<path d="M4702 2834 c-53 -26 -135 -108 -145 -143 -5 -22 2 -26 63 -36 19 -3 52 -11 73 -17 23 -7 41 -8 46 -2 8 8 71 203 71 218 0 15 -61 4 -108 -20z"/>
<path d="M3590 2674 c0 -7 52 -25 57 -20 2 2 -10 8 -26 14 -17 6 -31 9 -31 6z"/>
<path d="M3493 2649 c-21 -48 -34 -108 -29 -131 3 -13 7 -41 10 -63 8 -67 17 -119 21 -133 3 -8 8 -48 11 -90 11 -137 24 -103 18 43 -16 358 -20 401 -31 374z"/>
<path d="M5065 2655 c-72 -25 -143 -124 -273 -378 -33 -64 -66 -140 -72 -168 -11 -46 -11 -53 6 -70 32 -31 250 -147 260 -137 3 4 -6 61 -21 128 -23 106 -26 145 -11 129 3 -2 20 -74 40 -159 19 -85 40 -174 45 -198 6 -23 14 -59 16 -80 3 -20 8 -52 10 -69 3 -18 7 -48 10 -65 2 -18 15 -107 29 -198 14 -91 28 -196 32 -235 3 -38 13 -82 20 -97 13 -25 167 -148 186 -148 20 0 4 22 -54 74 -34 30 -59 58 -55 62 4 4 15 0 25 -9 20 -18 106 -50 162 -60 34 -6 34 -6 -12 19 -68 35 -59 44 19 18 10 -3 3 4 -16 15 -55 36 -28 35 66 -2 48 -19 108 -37 133 -41 33 -4 20 3 -53 27 -88 30 -139 58 -126 71 3 3 27 -6 54 -19 90 -44 220 -68 201 -36 -3 4 -34 19 -68 31 -96 36 -175 77 -183 97 -3 10 -11 77 -16 148 -5 72 -15 211 -24 310 -18 223 -32 437 -45 665 -5 105 -16 196 -25 228 -21 71 -76 126 -146 146 -63 19 -63 19 -114 1z"/>
<path d="M4319 2646 c-2 -2 -26 -7 -54 -11 -27 -3 -51 -8 -53 -9 -1 -2 41 -7 95 -10 153 -11 436 -36 461 -41 12 -3 22 -3 22 0 0 8 -44 24 -112 41 -32 8 -68 18 -80 21 -26 7 -273 15 -279 9z"/>
<path d="M3425 2526 c-6 -8 -56 -64 -113 -125 l-103 -109 58 -17 c32 -9 95 -36 141 -60 l82 -44 -5 61 c-4 34 -11 84 -16 112 -6 28 -13 73 -16 100 -9 78 -16 99 -28 82z"/>
<path d="M5960 1585 c0 -39 -133 -1004 -146 -1060 -10 -44 52 87 111 234 96 240 141 374 127 379 -7 2 -12 15 -12 29 0 20 4 24 20 20 11 -3 20 -4 20 -3 0 2 25 83 55 181 30 99 55 182 55 186 0 4 -44 14 -97 24 -54 9 -106 19 -115 21 -12 4 -18 0 -18 -11z"/>
<path d="M4085 1530 c-25 -11 1 -11 35 0 20 6 21 8 5 8 -11 0 -29 -3 -40 -8z"/>
<path d="M4090 1500 c-9 -5 52 -129 108 -220 l16 -25 7 29 c12 42 3 129 -16 165 -25 50 -79 73 -115 51z"/>
<path d="M4804 1398 c-50 -51 -96 -102 -104 -113 -15 -22 91 83 159 158 71 78 42 53 -55 -45z"/>
</g>
<g id="layer111" fill="#fbf9ff" stroke="none">
<path d="M987 6083 c-8 -13 -112 -338 -166 -513 -240 -790 -407 -1609 -433 -2135 l-3 -59 35 -9 c114 -30 215 -64 299 -101 53 -24 101 -41 108 -39 18 6 126 151 188 252 54 88 148 273 209 411 76 171 127 400 108 490 -7 33 -11 35 -55 42 -86 12 -152 86 -131 146 7 22 17 28 46 30 44 4 93 -35 129 -103 19 -36 28 -44 44 -39 166 49 299 253 398 609 44 158 113 515 157 809 16 109 31 201 35 204 3 3 10 1 16 -5 13 -13 8 -52 -42 -363 -73 -460 -124 -676 -208 -891 -85 -218 -190 -347 -314 -383 l-42 -12 3 -65 c2 -35 -2 -99 -9 -141 -32 -199 78 -480 268 -686 l58 -63 55 42 c79 60 154 92 227 97 89 6 117 -13 110 -74 -6 -61 -57 -141 -151 -241 -230 -244 -486 -317 -486 -138 0 54 36 109 138 209 l80 79 -61 71 c-145 166 -223 312 -257 474 -7 35 -16 59 -20 55 -4 -4 -24 -55 -45 -113 -44 -125 -185 -406 -258 -517 -29 -43 -76 -106 -104 -139 -29 -33 -53 -64 -53 -67 0 -4 24 -18 53 -32 142 -69 424 -243 478 -296 91 -88 89 -125 -12 -190 -79 -50 -141 -51 -305 -4 -221 64 -579 203 -649 251 -37 26 -43 18 -33 -43 11 -80 54 -216 90 -288 129 -258 359 -446 672 -551 431 -143 945 -119 1347 64 66 30 66 30 73 78 3 26 15 67 27 91 26 54 101 138 152 170 39 25 276 130 491 219 67 28 124 58 132 69 10 16 20 124 15 171 -2 21 -31 24 -57 7 -23 -15 -26 -15 -39 3 -16 21 -15 19 -20 54 -2 14 -7 38 -11 54 -7 28 -6 29 25 23 20 -4 44 -1 66 10 34 16 36 16 65 -5 l30 -23 0 60 c0 57 -53 965 -105 1796 -14 221 -25 406 -25 413 0 7 -9 12 -19 12 -26 0 -31 18 -31 126 0 67 4 96 13 99 6 3 39 6 72 7 54 3 60 5 63 26 3 17 -2 25 -17 29 -26 7 -26 11 0 114 24 95 22 132 -13 277 l-22 92 -1187 0 c-653 0 -1190 -3 -1192 -7z"/>
<path d="M3394 6056 c8 -42 44 -128 45 -106 1 38 -26 134 -38 138 -11 4 -12 -4 -7 -32z"/>
<path d="M4170 6063 c0 -62 -100 -194 -169 -223 -47 -19 -71 -75 -71 -164 0 -59 -3 -78 -15 -82 -8 -4 -15 -18 -15 -34 0 -27 0 -27 106 -40 l106 -13 -7 -91 c-11 -150 -17 -170 -44 -174 l-24 -4 6 -201 c3 -111 13 -569 22 -1017 9 -448 18 -825 21 -837 4 -21 10 -23 78 -23 50 0 77 4 85 14 6 7 97 181 203 387 105 206 202 394 215 419 19 37 30 96 58 312 33 259 33 268 19 354 -8 49 -15 152 -15 229 -1 149 12 227 57 356 13 38 24 80 24 95 0 17 6 28 20 31 16 4 20 15 22 62 4 67 -10 111 -34 111 -14 0 -12 11 18 76 32 71 34 81 34 182 0 59 -7 148 -15 197 -8 50 -15 93 -15 98 0 4 -151 7 -335 7 l-335 0 0 -27z"/>
<path d="M5940 6075 c0 -11 7 -14 23 -10 12 3 49 9 82 14 l60 9 -82 1 c-68 1 -83 -2 -83 -14z"/>
<path d="M6495 6073 c120 -21 316 -90 445 -155 63 -32 117 -55 121 -50 4 4 12 45 19 92 6 47 14 95 17 108 l5 22 -343 -1 c-332 -1 -341 -2 -264 -16z"/>
<path d="M4131 6039 c-2 -27 -80 -118 -126 -145 -24 -14 -49 -32 -57 -41 -18 -22 60 18 100 52 38 32 95 121 89 137 -4 9 -6 7 -6 -3z"/>
<path d="M3444 5827 c-1 -34 -8 -82 -17 -107 -16 -45 -16 -45 3 -22 28 34 38 81 30 135 -10 67 -15 65 -16 -6z"/>
<path d="M3425 5660 c-14 -6 0 -9 47 -9 37 -1 70 4 73 9 8 12 -91 12 -120 0z"/>
<path d="M3576 5662 c-14 -14 -3 -34 24 -46 38 -16 124 -6 147 17 9 9 15 18 12 20 -7 7 -178 15 -183 9z"/>
<path d="M3825 5640 c45 -11 77 -11 70 0 -3 6 -27 9 -53 9 -42 -1 -44 -2 -17 -9z"/>
<path d="M3444 5616 c-3 -8 -4 -25 -2 -38 2 -19 9 -23 43 -24 22 0 118 -4 213 -8 l172 -8 0 35 c0 33 -2 34 -45 40 -35 5 -52 2 -80 -15 -30 -17 -46 -20 -92 -15 -34 4 -68 14 -84 26 -34 25 -116 29 -125 7z"/>
<path d="M3316 5523 c-28 -5 -29 -5 -22 -56 3 -29 6 -64 6 -78 0 -26 1 -26 98 -33 54 -4 163 -23 247 -43 120 -29 176 -37 281 -41 153 -5 139 -16 149 120 l7 86 -29 6 c-113 23 -658 52 -737 39z"/>
<path d="M4879 5517 c5 -5 24 -7 42 -5 33 3 33 4 -8 8 -23 3 -39 2 -34 -3z"/>
<path d="M4880 5448 c0 -34 4 -32 31 15 8 14 6 17 -11 17 -16 0 -20 -6 -20 -32z"/>
<path d="M3350 5298 c0 -19 29 -518 65 -1109 36 -591 65 -1105 65 -1144 0 -38 4 -75 8 -81 4 -7 27 -18 51 -25 89 -27 168 -126 186 -236 6 -38 11 -44 43 -54 21 -6 96 -13 167 -16 105 -4 153 -1 250 16 66 12 170 24 231 28 l111 6 23 44 c41 77 143 147 233 159 l43 6 72 152 c39 83 120 268 180 412 l108 260 -48 55 c-125 139 -255 375 -326 592 l-39 117 -22 -192 c-29 -247 -40 -290 -105 -407 -30 -53 -121 -229 -202 -391 -82 -162 -161 -309 -177 -327 -28 -31 -32 -33 -101 -33 -39 -1 -116 -9 -171 -19 -58 -11 -104 -15 -109 -10 -15 14 -4 19 87 36 l86 17 -5 120 c-2 67 -11 459 -19 871 -8 413 -18 827 -21 921 l-6 171 -105 7 c-64 3 -163 20 -252 40 -80 19 -181 38 -223 42 l-78 7 0 -35z m873 -2317 c15 -15 -21 -277 -40 -292 -17 -15 -17 11 2 126 8 50 15 105 15 123 0 31 -2 32 -39 32 -46 0 -71 8 -71 22 0 14 118 4 133 -11z"/>
<path d="M1180 4545 c0 -51 52 -95 111 -95 30 0 22 20 -30 71 -54 55 -81 63 -81 24z"/>
<path d="M5175 3618 c-43 -111 -196 -466 -269 -625 -96 -208 -154 -383 -128 -383 5 0 16 -6 26 -13 15 -11 16 -20 7 -79 -6 -36 -25 -110 -41 -164 -17 -54 -29 -102 -27 -107 1 -5 25 33 51 84 109 210 180 310 248 345 41 21 116 17 174 -10 58 -27 119 -94 134 -145 14 -50 27 -192 50 -586 12 -187 25 -387 30 -445 5 -58 9 -145 10 -195 1 -134 -3 -130 183 -214 82 -37 87 -42 87 -70 0 -24 -7 -34 -32 -47 -60 -31 -95 -33 -212 -13 -138 24 -131 24 -107 -7 27 -34 27 -64 1 -64 -26 0 -161 92 -204 140 -37 41 -38 46 -55 205 -6 55 -20 162 -32 239 l-22 139 -182 -189 c-215 -224 -253 -249 -349 -241 -33 2 -110 17 -169 32 -60 14 -111 24 -114 21 -7 -7 149 -305 247 -472 246 -421 462 -628 724 -694 156 -39 255 -21 353 64 82 71 210 265 224 341 13 64 85 565 124 865 20 151 40 279 45 284 5 5 57 0 125 -13 64 -12 119 -21 121 -18 15 15 195 731 277 1102 66 298 143 663 153 724 7 43 6 44 -17 37 -72 -21 -247 -58 -334 -70 -326 -48 -536 -23 -760 92 -92 48 -218 136 -269 191 -17 17 -33 31 -36 31 -4 0 -20 -33 -35 -72z"/>
<path d="M1921 3564 c-85 -23 -166 -79 -294 -204 -149 -144 -178 -195 -141 -248 35 -51 156 -13 292 91 174 134 314 351 240 371 -30 8 -34 7 -97 -10z"/>
<path d="M382 3163 l3 -177 100 -44 c160 -71 533 -208 632 -231 144 -33 229 -27 281 21 67 64 -8 135 -355 331 -179 102 -291 159 -369 187 -111 41 -263 90 -279 90 -13 0 -15 -22 -13 -177z"/>
<path d="M3357 3043 c-14 -13 -6 -23 17 -23 17 0 31 -11 46 -36 12 -19 21 -37 19 -39 -2 -2 -35 17 -73 42 -37 24 -70 42 -72 40 -3 -2 20 -23 50 -46 31 -23 59 -49 64 -59 7 -13 9 -121 3 -195 -1 -10 -45 -30 -316 -143 -310 -129 -389 -178 -450 -275 -25 -39 -58 -129 -51 -136 3 -3 52 14 111 36 154 61 244 82 370 86 l110 5 103 107 c57 60 118 131 136 158 52 80 57 110 42 271 -7 78 -17 147 -21 155 -27 47 -69 72 -88 52z"/>
<path d="M3499 2922 c-2 -22 3 -132 7 -159 6 -30 11 -34 88 -59 44 -15 87 -29 95 -32 11 -4 13 3 7 37 -10 62 -39 113 -91 159 -44 38 -104 69 -106 54z"/>
<path d="M4721 2840 c-77 -35 -161 -117 -161 -157 0 -8 149 -53 174 -53 3 0 19 46 36 102 18 55 34 107 37 115 8 19 -34 16 -86 -7z"/>
<path d="M3485 2625 c-20 -49 -23 -104 -11 -175 3 -19 12 -73 21 -120 8 -47 15 -106 15 -132 0 -26 4 -50 10 -53 10 -6 8 56 -9 400 l-6 130 -20 -50z"/>
<path d="M5045 2642 c-65 -40 -103 -94 -238 -337 -51 -92 -97 -205 -97 -238 0 -8 8 -21 18 -29 21 -19 252 -142 256 -137 2 2 -8 61 -22 131 -23 110 -25 155 -7 136 3 -3 19 -67 35 -144 17 -76 39 -177 50 -224 22 -97 88 -523 99 -648 6 -58 14 -89 27 -104 26 -28 164 -138 175 -138 20 0 6 18 -58 76 -40 36 -62 63 -56 67 6 4 24 -3 40 -16 27 -23 93 -48 158 -61 25 -5 21 -1 -17 19 -68 36 -59 45 19 19 10 -3 3 4 -16 15 -55 36 -28 35 66 -2 48 -19 108 -37 133 -41 33 -4 20 3 -53 27 -88 30 -139 58 -126 71 3 3 27 -6 54 -19 61 -30 171 -59 192 -50 25 9 6 21 -95 59 -108 40 -140 59 -151 89 -5 12 -11 74 -15 137 -4 63 -13 185 -21 270 -7 85 -21 277 -29 425 -30 502 -35 536 -94 599 -58 62 -166 85 -227 48z"/>
<path d="M4275 2637 l-70 -13 100 -7 c163 -13 438 -37 465 -42 46 -8 -41 26 -120 47 -93 25 -278 32 -375 15z"/>
<path d="M3429 2533 c-2 -6 -51 -62 -108 -123 -57 -61 -100 -115 -95 -119 5 -4 29 -13 54 -20 25 -7 82 -32 128 -56 l82 -44 -5 42 c-27 213 -49 338 -56 320z"/>
<path d="M5947 1449 c-19 -147 -112 -825 -122 -889 l-6 -35 21 39 c28 49 135 317 186 460 26 77 34 111 26 114 -7 2 -12 15 -12 29 0 20 4 24 20 20 15 -4 22 2 29 26 5 18 30 101 56 185 26 85 45 155 43 158 -2 2 -35 8 -74 14 -38 6 -87 13 -109 16 l-40 6 -18 -143z"/>
<path d="M4103 1500 c-21 -9 -20 -11 32 -107 83 -152 84 -153 85 -60 0 78 -14 132 -41 153 -22 18 -52 23 -76 14z"/>
<path d="M4804 1398 c-88 -90 -121 -128 -112 -128 2 0 50 50 107 110 56 61 101 110 99 110 -2 0 -44 -42 -94 -92z"/>
</g>


</svg>