<svg width="102" height="21" viewBox="0 0 102 21" fill="none" xmlns="http://www.w3.org/2000/svg">
<path d="M20.124 19.628V11.9C20.124 11.4893 20.04 11.088 19.872 10.696C19.7227 10.2853 19.4893 9.90267 19.172 9.548C18.8547 9.17467 18.4067 8.89467 17.828 8.708C17.2493 8.52133 16.5493 8.428 15.728 8.428C15.5973 8.428 15.4573 8.43733 15.308 8.456C15.1773 8.47467 15.028 8.50267 14.86 8.54C14.692 8.55867 14.524 8.596 14.356 8.652C14.188 8.708 14.02 8.78267 13.852 8.876C13.5533 9.00667 13.264 9.19333 12.984 9.436C12.704 9.66 12.4333 9.93067 12.172 10.248C11.9293 10.5467 11.7333 10.92 11.584 11.368C11.4347 11.7973 11.3413 12.292 11.304 12.852C11.304 13.5987 11.4067 14.252 11.612 14.812C11.8173 15.3533 12.1253 15.8107 12.536 16.184C12.9653 16.5387 13.404 16.828 13.852 17.052C14.3187 17.2573 14.804 17.388 15.308 17.444C15.3267 17.444 15.3453 17.444 15.364 17.444C15.4013 17.444 15.4293 17.444 15.448 17.444C15.4853 17.4627 15.5133 17.472 15.532 17.472C15.5693 17.472 15.5973 17.472 15.616 17.472C15.6533 17.472 15.6813 17.472 15.7 17.472C15.7187 17.472 15.7467 17.472 15.784 17.472C15.8027 17.472 15.8213 17.472 15.84 17.472C15.8773 17.472 15.9053 17.472 15.924 17.472C16.148 17.472 16.3533 17.4627 16.54 17.444C16.7453 17.4067 16.9413 17.3507 17.128 17.276C17.2213 17.2387 17.3053 17.2013 17.38 17.164C17.4733 17.1267 17.5667 17.0893 17.66 17.052C17.7347 16.996 17.8187 16.94 17.912 16.884C18.0053 16.828 18.0893 16.7627 18.164 16.688C18.2573 16.632 18.3413 16.5667 18.416 16.492C18.5093 16.3987 18.6027 16.3147 18.696 16.24C18.7893 16.1467 18.8827 16.0627 18.976 15.988C19.0693 15.8947 19.1627 15.8013 19.256 15.708V18.76C19.2373 18.7973 19.2187 18.8253 19.2 18.844C19.2 18.8627 19.2 18.872 19.2 18.872C18.976 19.0213 18.7427 19.1613 18.5 19.292C18.2573 19.404 18.0053 19.5067 17.744 19.6C17.4827 19.6747 17.1653 19.7307 16.792 19.768C16.4187 19.824 15.9893 19.852 15.504 19.852C15.4853 19.852 15.4667 19.852 15.448 19.852C15.448 19.852 15.4387 19.852 15.42 19.852C15.4013 19.852 15.3827 19.852 15.364 19.852C15.3453 19.852 15.336 19.852 15.336 19.852C15.3173 19.852 15.2987 19.852 15.28 19.852C15.2613 19.852 15.2427 19.852 15.224 19.852C15.2053 19.852 15.1867 19.852 15.168 19.852C15.168 19.852 15.1587 19.852 15.14 19.852C14.2813 19.852 13.4787 19.7027 12.732 19.404C12.004 19.0867 11.332 18.6107 10.716 17.976C10.1 17.3227 9.63333 16.576 9.31599 15.736C9.01733 14.8773 8.86799 13.916 8.86799 12.852C8.86799 11.9187 9.01733 11.0507 9.31599 10.248C9.61466 9.44533 10.0627 8.708 10.66 8.036C11.2573 7.364 11.9947 6.86 12.872 6.524C13.7493 6.188 14.7667 6.02 15.924 6.02C17.0253 6.02 18.0053 6.16933 18.864 6.468C19.7227 6.76667 20.4413 7.21467 21.02 7.812C21.6173 8.40933 22.056 9.044 22.336 9.716C22.6347 10.3693 22.784 11.0507 22.784 11.76V19.628H20.124Z" fill="white"/>
<path d="M25.4046 0H28.0366V19.628H25.4046V0Z" fill="white"/>
<path d="M31.109 0H33.545V11.032H34.861C35.029 11.0693 35.197 11.0787 35.365 11.06C35.533 11.0227 35.6823 10.976 35.813 10.92C35.9623 10.864 36.1023 10.7893 36.233 10.696C36.3823 10.584 36.5223 10.444 36.653 10.276C36.709 10.1827 36.7743 10.0893 36.849 9.996C36.9236 9.90267 36.9983 9.8 37.073 9.688C37.1476 9.576 37.2223 9.45467 37.297 9.324C37.3716 9.17467 37.4463 9.02533 37.521 8.876L39.061 6.188H41.917C41.8983 6.26267 41.8703 6.328 41.833 6.384C41.8143 6.44 41.7956 6.48667 41.777 6.524C41.7396 6.58 41.7116 6.636 41.693 6.692C41.6743 6.72933 41.6463 6.76667 41.609 6.804C41.5903 6.86 41.5623 6.916 41.525 6.972C41.5063 7.00933 41.4876 7.04667 41.469 7.084C41.4316 7.14 41.4036 7.196 41.385 7.252C41.3663 7.28933 41.3383 7.32667 41.301 7.364C41.2263 7.49467 41.1516 7.62533 41.077 7.756C41.021 7.868 40.9556 7.98 40.881 8.092C40.8063 8.22267 40.7316 8.344 40.657 8.456C40.601 8.568 40.545 8.68 40.489 8.792C40.265 9.184 40.041 9.548 39.817 9.884C39.593 10.22 39.369 10.528 39.145 10.808C38.921 11.088 38.7063 11.312 38.501 11.48C38.3143 11.6293 38.1276 11.7227 37.941 11.76C38.4263 11.816 38.8556 11.928 39.229 12.096C39.6023 12.264 39.9103 12.4973 40.153 12.796C40.3956 13.0947 40.5823 13.412 40.713 13.748C40.8623 14.0653 40.965 14.4013 41.021 14.756C41.021 14.812 41.021 14.868 41.021 14.924C41.021 14.9613 41.021 14.9987 41.021 15.036C41.021 15.0547 41.021 15.0733 41.021 15.092C41.021 15.1107 41.0303 15.1293 41.049 15.148C41.049 15.1853 41.049 15.2133 41.049 15.232C41.049 15.2507 41.049 15.2693 41.049 15.288V19.628H38.613V16.1C38.613 15.7453 38.557 15.4187 38.445 15.12C38.3516 14.8027 38.2023 14.5227 37.997 14.28C37.8103 14.0187 37.521 13.832 37.129 13.72C36.7556 13.5893 36.2983 13.524 35.757 13.524L33.545 13.468V19.628H31.109V0Z" fill="white"/>
<path d="M54.2763 19.628V11.9C54.2763 11.4893 54.1923 11.088 54.0243 10.696C53.875 10.2853 53.6417 9.90267 53.3243 9.548C53.007 9.17467 52.559 8.89467 51.9803 8.708C51.4017 8.52133 50.7017 8.428 49.8803 8.428C49.7497 8.428 49.6097 8.43733 49.4603 8.456C49.3297 8.47467 49.1803 8.50267 49.0123 8.54C48.8443 8.55867 48.6763 8.596 48.5083 8.652C48.3403 8.708 48.1723 8.78267 48.0043 8.876C47.7057 9.00667 47.4163 9.19333 47.1363 9.436C46.8563 9.66 46.5857 9.93067 46.3243 10.248C46.0817 10.5467 45.8857 10.92 45.7363 11.368C45.587 11.7973 45.4937 12.292 45.4563 12.852C45.4563 13.5987 45.559 14.252 45.7643 14.812C45.9697 15.3533 46.2777 15.8107 46.6883 16.184C47.1177 16.5387 47.5563 16.828 48.0043 17.052C48.471 17.2573 48.9563 17.388 49.4603 17.444C49.479 17.444 49.4977 17.444 49.5163 17.444C49.5537 17.444 49.5817 17.444 49.6003 17.444C49.6377 17.4627 49.6657 17.472 49.6843 17.472C49.7217 17.472 49.7497 17.472 49.7683 17.472C49.8057 17.472 49.8337 17.472 49.8523 17.472C49.871 17.472 49.899 17.472 49.9363 17.472C49.955 17.472 49.9737 17.472 49.9923 17.472C50.0297 17.472 50.0577 17.472 50.0763 17.472C50.3003 17.472 50.5057 17.4627 50.6923 17.444C50.8977 17.4067 51.0937 17.3507 51.2803 17.276C51.3737 17.2387 51.4577 17.2013 51.5323 17.164C51.6257 17.1267 51.719 17.0893 51.8123 17.052C51.887 16.996 51.971 16.94 52.0643 16.884C52.1577 16.828 52.2417 16.7627 52.3163 16.688C52.4097 16.632 52.4937 16.5667 52.5683 16.492C52.6617 16.3987 52.755 16.3147 52.8483 16.24C52.9417 16.1467 53.035 16.0627 53.1283 15.988C53.2217 15.8947 53.315 15.8013 53.4083 15.708V18.76C53.3897 18.7973 53.371 18.8253 53.3523 18.844C53.3523 18.8627 53.3523 18.872 53.3523 18.872C53.1283 19.0213 52.895 19.1613 52.6523 19.292C52.4097 19.404 52.1577 19.5067 51.8963 19.6C51.635 19.6747 51.3177 19.7307 50.9443 19.768C50.571 19.824 50.1417 19.852 49.6563 19.852C49.6377 19.852 49.619 19.852 49.6003 19.852C49.6003 19.852 49.591 19.852 49.5723 19.852C49.5537 19.852 49.535 19.852 49.5163 19.852C49.4977 19.852 49.4883 19.852 49.4883 19.852C49.4697 19.852 49.451 19.852 49.4323 19.852C49.4137 19.852 49.395 19.852 49.3763 19.852C49.3577 19.852 49.339 19.852 49.3203 19.852C49.3203 19.852 49.311 19.852 49.2923 19.852C48.4337 19.852 47.631 19.7027 46.8843 19.404C46.1563 19.0867 45.4843 18.6107 44.8683 17.976C44.2523 17.3227 43.7857 16.576 43.4683 15.736C43.1697 14.8773 43.0203 13.916 43.0203 12.852C43.0203 11.9187 43.1697 11.0507 43.4683 10.248C43.767 9.44533 44.215 8.708 44.8123 8.036C45.4097 7.364 46.147 6.86 47.0243 6.524C47.9017 6.188 48.919 6.02 50.0763 6.02C51.1777 6.02 52.1577 6.16933 53.0163 6.468C53.875 6.76667 54.5937 7.21467 55.1723 7.812C55.7697 8.40933 56.2083 9.044 56.4883 9.716C56.787 10.3693 56.9363 11.0507 56.9363 11.76V19.628H54.2763Z" fill="white"/>
<path d="M59.557 2.884H62.189V6.188H67.285V8.596H62.189V15.428C62.189 15.6893 62.2076 15.9227 62.245 16.128C62.2823 16.3333 62.3383 16.5293 62.413 16.716C62.4876 16.9027 62.6463 17.0427 62.889 17.136C63.1503 17.2107 63.505 17.248 63.953 17.248L67.061 17.192V19.628H63.757C63.7383 19.628 63.7196 19.628 63.701 19.628C63.6823 19.628 63.6636 19.628 63.645 19.628C63.6263 19.628 63.6076 19.628 63.589 19.628C63.589 19.628 63.5796 19.6373 63.561 19.656C63.5423 19.656 63.5236 19.656 63.505 19.656C63.4863 19.656 63.4676 19.656 63.449 19.656C63.4303 19.656 63.4116 19.656 63.393 19.656C63.393 19.656 63.3836 19.656 63.365 19.656C62.7303 19.656 62.1796 19.5627 61.713 19.376C61.2463 19.1893 60.8636 18.9 60.565 18.508C60.2663 18.116 60.033 17.696 59.865 17.248C59.7156 16.8 59.6223 16.3333 59.585 15.848C59.5663 15.8107 59.557 15.7733 59.557 15.736C59.557 15.68 59.557 15.624 59.557 15.568C59.557 15.5307 59.557 15.4933 59.557 15.456C59.557 15.4 59.557 15.344 59.557 15.288V2.884Z" fill="white"/>
<path d="M69.6945 19.628V6.188H72.1305V19.628H69.6945ZM69.4985 3.08C69.4985 2.87467 69.5358 2.688 69.6105 2.52C69.6852 2.33333 69.8065 2.17467 69.9745 2.044C70.1238 1.932 70.2825 1.848 70.4505 1.792C70.6372 1.71733 70.8238 1.68 71.0105 1.68C71.2158 1.68 71.4025 1.708 71.5705 1.764C71.7385 1.82 71.9065 1.91333 72.0745 2.044C72.2425 2.17467 72.3638 2.33333 72.4385 2.52C72.5318 2.688 72.5785 2.89333 72.5785 3.136C72.5785 3.37867 72.5318 3.59333 72.4385 3.78C72.3638 3.96667 72.2518 4.12533 72.1025 4.256C71.9345 4.38667 71.7665 4.48 71.5985 4.536C71.4305 4.592 71.2532 4.62 71.0665 4.62C70.8798 4.63867 70.6932 4.62 70.5065 4.564C70.3198 4.508 70.1425 4.41467 69.9745 4.284C69.8065 4.15333 69.6852 3.99467 69.6105 3.808C69.5358 3.60267 69.4985 3.37867 69.4985 3.136V3.08Z" fill="white"/>
<path d="M74.1288 6.188H77.0128L81.1848 16.772L84.9368 6.188H87.8208L83.1728 18.312C83.0608 18.592 82.9301 18.8347 82.7808 19.04C82.6501 19.2267 82.5008 19.3853 82.3328 19.516C82.1648 19.628 81.9874 19.7213 81.8008 19.796C81.6328 19.8707 81.4461 19.9173 81.2408 19.936C81.2221 19.936 81.2034 19.936 81.1848 19.936C81.1848 19.936 81.1754 19.936 81.1568 19.936C81.1381 19.936 81.1194 19.936 81.1008 19.936C80.8954 19.936 80.6901 19.908 80.4848 19.852C80.2981 19.796 80.1021 19.712 79.8968 19.6C79.7101 19.4507 79.5421 19.2827 79.3928 19.096C79.2434 18.8907 79.1128 18.648 79.0008 18.368L74.1288 6.188Z" fill="white"/>
<path d="M91.1361 13.468L97.7441 9.716C97.7068 9.69733 97.6695 9.67867 97.6321 9.66C97.5948 9.62267 97.5575 9.576 97.5201 9.52C97.4828 9.48267 97.4361 9.436 97.3801 9.38C97.3428 9.324 97.2962 9.268 97.2402 9.212C97.1842 9.17467 97.1188 9.13733 97.0442 9.1C96.9882 9.044 96.9322 8.988 96.8762 8.932C96.8015 8.89467 96.7268 8.85733 96.6522 8.82C96.5775 8.764 96.4935 8.71733 96.4001 8.68C96.2135 8.58667 95.9895 8.52133 95.7281 8.484C95.4855 8.44667 95.2055 8.428 94.8882 8.428C94.1602 8.428 93.5162 8.55867 92.9562 8.82C92.4148 9.08133 91.9575 9.464 91.5842 9.968C91.2108 10.472 90.9308 11.004 90.7441 11.564C90.5575 12.124 90.4641 12.7027 90.4641 13.3C90.4641 13.3187 90.4641 13.3373 90.4641 13.356C90.4641 13.3747 90.4641 13.384 90.4641 13.384C90.4641 13.9253 90.5575 14.448 90.7441 14.952C90.9495 15.4373 91.2388 15.904 91.6122 16.352C91.9855 16.8 92.4428 17.136 92.9841 17.36C93.5441 17.584 94.1788 17.696 94.8882 17.696C95.6535 17.696 96.2882 17.612 96.7922 17.444C97.3148 17.2573 97.7068 16.9867 97.9681 16.632C98.2295 16.2587 98.4628 15.82 98.6682 15.316C98.8922 14.812 99.0882 14.2427 99.2561 13.608C99.2561 13.608 99.2561 13.5987 99.2561 13.58C99.2561 13.58 99.2655 13.5707 99.2841 13.552C99.2841 13.5333 99.2841 13.524 99.2841 13.524L101.72 13.664C101.72 13.7013 101.72 13.7387 101.72 13.776C101.72 13.7947 101.729 13.8133 101.748 13.832C101.748 13.8693 101.748 13.8973 101.748 13.916C101.748 13.9347 101.748 13.9627 101.748 14C101.748 14.0187 101.748 14.0467 101.748 14.084C101.748 14.1027 101.757 14.1213 101.776 14.14C101.776 14.1773 101.776 14.2053 101.776 14.224C101.776 14.2427 101.776 14.2613 101.776 14.28C101.776 14.4293 101.767 14.588 101.748 14.756C101.729 14.9053 101.701 15.064 101.664 15.232C101.645 15.3067 101.617 15.3907 101.58 15.484C101.561 15.5773 101.543 15.6613 101.524 15.736C101.487 15.8293 101.449 15.9227 101.412 16.016C101.393 16.0907 101.365 16.1747 101.328 16.268C101.104 16.7347 100.805 17.192 100.432 17.64C100.059 18.088 99.6015 18.508 99.0602 18.9C98.5375 19.292 97.9215 19.5813 97.2122 19.768C96.5215 19.9733 95.7468 20.076 94.8882 20.076C93.8988 20.076 92.9841 19.9267 92.1441 19.628C91.3042 19.3107 90.5481 18.8347 89.8762 18.2C89.1855 17.5467 88.6721 16.8187 88.3362 16.016C88.0002 15.1947 87.8322 14.2893 87.8322 13.3C87.8322 12.2547 87.9722 11.3307 88.2522 10.528C88.5322 9.72533 88.9522 9.03467 89.5122 8.456C90.0722 7.87733 90.6601 7.40133 91.2761 7.028C91.8921 6.65467 92.5362 6.384 93.2082 6.216C93.2828 6.19733 93.3482 6.188 93.4042 6.188C93.4788 6.16933 93.5535 6.15067 93.6282 6.132C93.7028 6.132 93.7682 6.132 93.8242 6.132C93.8988 6.11333 93.9735 6.09467 94.0481 6.076C94.1975 6.05733 94.3375 6.048 94.4681 6.048C94.6175 6.02933 94.7575 6.02 94.8882 6.02C95.6535 6.02 96.3628 6.132 97.0162 6.356C97.6881 6.56133 98.3042 6.87867 98.8642 7.308C99.4055 7.73733 99.8908 8.21333 100.32 8.736C100.768 9.25867 101.16 9.81867 101.496 10.416L92.2281 15.428L91.1361 13.468Z" fill="white"/>
<path fill-rule="evenodd" clip-rule="evenodd" d="M0.13236 1.67009C0.0917109 1.69655 0.0592728 1.73385 0.0387122 1.77778L0.0307347 1.79482C0.0104881 1.83808 -4.34109e-06 1.88526 1.34742e-09 1.93302L0.000600263 8.53505C0.00127435 15.6776 -0.00125366 15.5604 0.168076 16.315C0.369761 17.2138 0.702185 17.932 1.17708 18.4952C1.72146 19.1406 2.33383 19.4755 3.20188 19.6024C3.39305 19.6303 4.17769 19.6354 5.55989 19.6176L7.59006 19.5916C7.61723 19.5912 7.64394 19.5845 7.66806 19.572C7.70132 19.5548 7.72814 19.5272 7.74453 19.4935L7.75247 19.4772C7.7743 19.4323 7.78564 19.3831 7.78564 19.3331V18.0042C7.78564 16.444 7.78915 16.4695 7.56282 16.3814C7.36269 16.3034 7.23664 16.356 6.89336 16.6604C6.20927 17.2672 5.48352 17.7351 4.72329 18.0598C4.25285 18.2607 4.15204 18.2835 4.08493 18.2043C4.01614 18.1231 4.03748 18.0403 4.25878 17.5289C4.37664 17.2565 4.50738 16.912 4.54931 16.7633C4.63407 16.4627 4.62143 16.4259 4.43208 16.4214C4.37647 16.4201 4.14344 16.386 3.91422 16.3457C3.41152 16.2573 3.36767 16.2196 3.26039 15.7832C3.18894 15.4924 3.18769 15.4347 3.17698 11.9341C3.16889 9.29172 3.17607 8.36602 3.20499 8.32494C3.23744 8.27877 3.61516 8.26966 5.49956 8.26966C7.96791 8.26966 7.92356 8.27376 7.97897 8.04027C7.99313 7.98049 8.00236 7.32523 7.99946 6.58407L7.99448 5.30024C7.99432 5.25825 7.98519 5.21678 7.96771 5.17861L7.95859 5.1587C7.93984 5.11778 7.9092 5.08346 7.87065 5.06022C7.83608 5.03938 7.79652 5.02827 7.75615 5.02807L5.53748 5.01736C3.94755 5.00964 3.24368 4.99314 3.21267 4.96275C3.17728 4.92815 3.16818 4.61838 3.16818 3.45128C3.16818 1.89053 3.15685 1.76704 3.00471 1.67095C2.95918 1.6422 2.48365 1.628 1.56686 1.628H0.274186C0.223832 1.628 0.174562 1.64262 0.13236 1.67009Z" fill="white"/>
</svg>
