<svg width="638" height="1248" viewBox="0 0 638 1248" fill="none" xmlns="http://www.w3.org/2000/svg">
<path fill-rule="evenodd" clip-rule="evenodd" d="M11.2933 3.17685C7.84235 5.1308 5.01415 8.02068 3.1351 11.513L3.02737 11.7132C1.31727 14.8916 0.422317 18.4445 0.422694 22.0536L0.470452 478.993C0.524139 973.856 0.322797 965.733 13.8089 1018.02C29.8721 1080.29 56.3478 1130.05 94.1702 1169.07C137.528 1213.79 186.3 1236.99 255.435 1245.78C270.66 1247.71 333.152 1248.07 443.237 1246.83L605.238 1245.02C607.204 1245 609.145 1244.57 610.938 1243.77C613.72 1242.51 616.025 1240.39 617.514 1237.73L617.864 1237.11L618.599 1235.79C619.849 1233.55 620.506 1231.03 620.506 1228.47V1135.05C620.506 1026.96 620.785 1028.72 602.76 1022.61C586.82 1017.22 576.781 1020.86 549.44 1041.95C494.956 1083.99 437.154 1116.41 376.606 1138.9C339.138 1152.82 331.109 1154.4 325.765 1148.91C320.286 1143.29 321.985 1137.55 339.611 1102.12C348.998 1083.25 359.41 1059.38 362.75 1049.07C369.501 1028.25 368.494 1025.7 353.413 1025.39C348.984 1025.29 330.425 1022.94 312.169 1020.14C272.132 1014.02 268.639 1011.4 260.095 981.169C254.404 961.024 254.305 957.029 253.451 714.492C252.807 531.418 253.379 467.282 255.682 464.436C258.267 461.237 288.35 460.606 438.432 460.606C635.023 460.606 631.49 460.889 635.903 444.712C637.031 440.571 637.766 395.172 637.535 343.822L637.136 254.131C637.125 251.719 636.532 249.344 635.408 247.21L634.162 244.843C632.747 242.155 630.548 239.959 627.857 238.548L626.312 237.738C624.181 236.62 621.814 236.032 619.408 236.022L441.452 235.274C314.823 234.739 258.763 233.596 256.294 231.491C253.475 229.093 252.751 207.631 252.751 126.77C252.751 18.6356 251.849 10.08 239.731 3.42281C236.105 1.43063 198.232 0.44693 125.215 0.44693H21.6554C18.0236 0.44693 14.4537 1.38743 11.2933 3.17685Z" fill="white"/>
</svg>
